<svg width="494" height="338" viewBox="0 0 494 338" fill="none" xmlns="http://www.w3.org/2000/svg">
<path d="M212.648 67.1137H98.1109C71.5482 67.1137 50.0149 88.647 50.0149 115.21V288.959C50.0149 315.522 71.5482 337.055 98.1109 337.055H212.648C239.211 337.055 260.744 315.522 260.744 288.959V115.21C260.744 88.647 239.211 67.1137 212.648 67.1137Z" fill="#83B932"/>
<path d="M231.846 172.732L189.725 138.887L156.007 97.5181L123.605 138.887L73.2323 166.552L63.678 176.379C63.678 176.379 64.391 262.317 121.442 295.169C121.442 295.169 157.567 326.44 182.777 305.262C207.987 284.084 245.684 255.551 250.13 188.912L247.657 174.573L231.846 172.732Z" fill="#006FB0"/>
<path d="M68.7212 173.002C70.7194 172.783 76.8245 170.25 85.4769 165.607C96.5362 159.606 107.076 152.694 116.988 144.944C124.614 139.219 131.837 132.975 138.603 126.256L141.771 122.933C142.804 121.817 143.744 120.616 144.698 119.486C145.651 118.356 146.583 117.249 147.409 116.099L149.726 112.735C151.048 110.824 152.2 108.801 153.17 106.689C153.601 105.798 153.97 104.971 154.266 104.235C154.488 103.573 154.661 102.895 154.783 102.208C155.197 100.486 154.921 98.671 154.013 97.1508C153.147 96.231 151.657 96.584 149.582 99.7872C147.299 103.013 144.843 106.112 142.223 109.071L140.482 111.128L138.637 113.099C137.389 114.404 136.264 115.824 134.894 117.156L130.692 121.488L125.701 126.275C123.881 127.983 121.821 129.746 119.603 131.739C117.318 133.659 114.821 135.755 112.001 137.99C104.495 143.379 96.7219 148.384 88.7104 152.986C78.55 159.047 68.165 164.751 65.083 167.632C60.7961 171.637 63.657 173.698 68.7212 173.002Z" fill="white"/>
<path d="M66.8499 174.029C64.5469 174.029 62.9444 173.355 62.3401 172.088C61.8695 171.106 61.857 169.414 64.4559 166.985C66.8391 164.755 73.2473 161.013 80.6769 156.676C83.1332 155.25 85.6964 153.744 88.2437 152.22C96.2219 147.638 103.963 142.656 111.438 137.292C114.302 135.019 116.919 132.819 119.022 131.053C119.816 130.34 120.612 129.627 121.384 128.953C122.698 127.792 123.939 126.696 125.083 125.623L130.074 120.839L134.25 116.532C135.063 115.748 135.785 114.928 136.484 114.145C136.985 113.579 137.48 113.021 137.997 112.481L141.55 108.491C144.152 105.552 146.592 102.472 148.858 99.2668C150.275 97.0743 151.587 95.9388 152.848 95.823C153.185 95.7953 153.524 95.8451 153.838 95.9687C154.153 96.0923 154.436 96.2863 154.664 96.5359C155.214 97.3882 155.586 98.343 155.758 99.343C155.93 100.343 155.897 101.367 155.662 102.354C155.534 103.088 155.35 103.812 155.111 104.518C154.79 105.313 154.416 106.154 153.974 107.072C152.98 109.23 151.802 111.297 150.454 113.252L148.151 116.598C147.552 117.429 146.903 118.213 146.241 119.01L144.52 121.096C143.844 121.914 143.16 122.743 142.429 123.529L139.254 126.862C133.086 133.054 126.493 138.809 119.523 144.083C118.728 144.703 118.06 145.222 117.552 145.632C107.596 153.412 97.011 160.352 85.9068 166.38C77.9158 170.669 71.2206 173.609 68.8356 173.867C68.1782 173.967 67.5147 174.021 66.8499 174.029ZM153.053 97.6037H153.004C152.767 97.6251 151.876 97.8818 150.331 100.277C148.025 103.542 145.541 106.678 142.89 109.67L141.163 111.711L139.288 113.716C138.778 114.251 138.297 114.785 137.812 115.34C137.099 116.153 136.347 116.992 135.505 117.803L131.324 122.115L126.302 126.928C125.138 128.019 123.885 129.126 122.559 130.299C121.792 130.976 121.001 131.68 120.185 132.409C118.046 134.202 115.425 136.407 112.541 138.696C105.002 144.109 97.1931 149.138 89.1456 153.762C86.5984 155.282 84.0316 156.782 81.5717 158.218C74.2438 162.496 67.914 166.199 65.6787 168.29C64.062 169.805 63.718 170.851 63.9515 171.32C64.2634 171.97 65.8481 172.498 68.6038 172.117H68.6288C70.3454 171.938 76.2188 169.568 85.0619 164.823C96.0706 158.841 106.564 151.957 116.436 144.242C116.94 143.837 117.614 143.311 118.418 142.685C125.32 137.464 131.849 131.768 137.958 125.637L141.119 122.318C141.819 121.564 142.48 120.762 143.133 119.969L144.86 117.88C145.493 117.115 146.119 116.363 146.682 115.58L148.983 112.235C150.281 110.361 151.411 108.377 152.359 106.304C152.78 105.429 153.14 104.623 153.429 103.905C153.629 103.299 153.785 102.678 153.894 102.049C154.238 100.605 154.048 99.086 153.359 97.7712C153.323 97.7226 153.277 97.6825 153.224 97.6535C153.171 97.6246 153.113 97.6075 153.053 97.6037Z" fill="white"/>
<path d="M156.043 103.812C156.614 105.88 160.143 112.078 166.382 120.728C174.386 131.87 183.618 142.074 193.906 151.149C201.613 158.132 210.009 164.313 218.966 169.598C224.44 172.772 230.206 175.412 236.186 177.482C240.133 178.95 244.28 179.811 248.485 180.036C250.358 180.104 252.187 179.456 253.601 178.225C254.378 177.156 253.601 175.872 249.592 174.386C245.005 172.632 241.196 170.951 237.627 169.216C234.059 167.482 230.676 165.83 227.088 163.817C217.324 158.52 208.164 152.177 199.77 144.901C198.127 143.459 195.057 140.495 191.466 136.577C187.874 132.659 183.758 127.801 179.779 122.817C171.795 112.871 164.341 102.415 160.876 99.4522C156.095 95.3328 154.489 98.5627 156.043 103.812Z" fill="white"/>
<path d="M248.219 180.933C244.009 180.659 239.86 179.781 235.9 178.327C229.865 176.24 224.046 173.577 218.522 170.373C209.541 165.086 201.123 158.896 193.399 151.899C183.019 142.768 173.71 132.486 165.653 121.252C159.246 112.349 155.783 106.206 155.187 104.056C154.161 100.587 154.433 98.0421 155.938 97.0724C157.278 96.2061 159.134 96.7801 161.451 98.7836C165.512 103.001 169.257 107.51 172.658 112.276C175.166 115.527 177.759 118.89 180.465 122.258C184.624 127.466 188.651 132.206 192.116 135.971C195.665 139.846 198.695 142.778 200.351 144.229C208.698 151.463 217.806 157.769 227.515 163.036C231.034 164.997 234.349 166.633 238.01 168.414C241.932 170.309 245.702 171.942 249.905 173.548C252.784 174.617 254.299 175.687 254.666 176.89C254.76 177.205 254.777 177.538 254.715 177.861C254.653 178.183 254.514 178.486 254.31 178.744C253.529 179.472 252.613 180.039 251.614 180.413C250.614 180.786 249.551 180.959 248.484 180.922L248.219 180.933ZM157.285 98.4752C157.152 98.4691 157.02 98.5013 156.904 98.5679C156.401 98.8906 155.988 100.486 156.904 103.559V103.575C157.439 105.498 160.849 111.523 167.096 120.208C175.05 131.301 184.238 141.456 194.483 150.477C202.143 157.426 210.493 163.573 219.404 168.822C224.827 171.969 230.54 174.586 236.465 176.637C240.311 178.081 244.355 178.928 248.458 179.147C250.057 179.203 251.624 178.689 252.878 177.696C252.996 177.532 252.973 177.457 252.96 177.414C252.914 177.259 252.515 176.423 249.276 175.222C245.016 173.594 241.192 171.944 237.231 170.024C233.545 168.231 230.205 166.587 226.647 164.6C216.83 159.275 207.621 152.899 199.182 145.584C197.483 144.092 194.397 141.11 190.804 137.183C187.315 133.391 183.26 128.627 179.078 123.377C176.362 119.99 173.763 116.623 171.25 113.363C167.91 108.703 164.249 104.283 160.292 100.135C159.491 99.2768 158.438 98.6956 157.285 98.4752Z" fill="white"/>
<path d="M60.2494 178.578C59.6843 181.306 59.6041 190.899 61.8644 204.942C64.8536 222.886 70.4379 240.299 78.4418 256.635C80.8355 261.667 83.6826 266.471 86.948 270.986C89.4395 274.284 92.2453 277.332 95.3258 280.088C98.5763 282.973 101.974 285.689 105.504 288.225C119.388 298.296 133.49 308.078 139.31 310.633C143.967 312.672 151.235 313.287 142.192 305.626C131.837 296.854 124.381 290.963 115.276 284.219C110.729 280.817 105.762 277.417 100.65 272.836C97.8914 270.385 95.3922 267.655 93.1921 264.692C90.5327 261.018 88.1973 257.121 86.2119 253.043C83.9993 248.36 82.0416 243.56 80.3473 238.665C77.7176 231.18 75.4746 223.565 73.6272 215.849C71.6664 207.694 70.1959 199.439 69.1246 192.514C68.0533 185.589 67.3617 179.988 66.629 177.14C64.7021 169.231 61.6041 171.527 60.2494 178.578Z" fill="white"/>
<path d="M144.634 312.848C142.669 312.732 140.743 312.256 138.951 311.444C134.003 309.273 122.575 301.701 104.98 288.94C101.42 286.389 97.9977 283.652 94.7268 280.74C91.6009 277.947 88.754 274.856 86.226 271.512C83.1491 267.292 80.4574 262.804 78.1832 258.102L77.6485 257.032C69.6041 240.616 63.9932 223.115 60.9926 205.081C58.7199 190.967 58.7983 181.231 59.3883 178.398C59.8963 175.758 61.1209 171.329 63.6254 171.268H63.6717C65.3188 171.268 66.5683 173.12 67.4935 176.921C68.0282 178.954 68.5166 182.322 69.1423 186.582C69.4043 188.364 69.6895 190.309 70.0104 192.366C71.3348 200.922 72.8446 208.748 74.4988 215.632C76.3402 223.317 78.5736 230.902 81.1903 238.359C82.8748 243.219 84.8187 247.986 87.0138 252.638C88.9791 256.669 91.2883 260.522 93.9157 264.155C96.0782 267.075 98.537 269.763 101.253 272.177C104.901 275.369 108.708 278.375 112.661 281.182C113.73 281.966 114.784 282.738 115.814 283.508C125.235 290.485 132.793 296.499 142.771 304.948C146.693 308.271 148.04 310.399 147.135 311.848C146.838 312.214 146.452 312.498 146.014 312.673C145.576 312.848 145.101 312.909 144.634 312.848ZM63.6593 173.053C63.1887 173.063 61.9498 174.479 61.1281 178.746V178.758C60.5701 181.455 60.5167 190.912 62.7502 204.801C65.7244 222.655 71.2798 239.982 79.242 256.237L79.7767 257.307C82.0071 261.915 84.6457 266.314 87.6609 270.451C90.1169 273.702 92.8846 276.706 95.9246 279.419C99.1485 282.29 102.522 284.989 106.031 287.503C123.52 300.185 134.839 307.693 139.669 309.813C142.675 311.13 145.272 311.262 145.628 310.893C145.618 310.893 145.768 309.824 141.618 306.303C131.671 297.881 124.138 291.888 114.746 284.932C113.718 284.164 112.671 283.391 111.605 282.615C107.604 279.774 103.749 276.731 100.057 273.498C97.2523 271.006 94.7124 268.232 92.4772 265.219C89.7884 261.503 87.4256 257.562 85.4149 253.439C83.187 248.723 81.2157 243.891 79.5094 238.963C76.8713 231.447 74.6194 223.802 72.7626 216.056C71.0959 209.122 69.5772 201.247 68.2439 192.646C67.9248 190.584 67.6396 188.639 67.3758 186.847C66.7555 182.639 66.2688 179.315 65.7608 177.363C64.8981 173.819 63.9569 173.053 63.6593 173.053Z" fill="white"/>
<path d="M246.587 187.423C246.298 188.318 246.083 189.235 245.943 190.165C245.729 191.412 245.33 192.983 245.002 194.853C244.612 196.714 244.376 198.895 243.82 201.304C243.301 203.714 242.727 206.389 242.102 209.304C238.525 224.137 233.147 238.476 226.086 252.002C225.515 253.141 224.515 254.728 223.339 256.735L221.389 260.011C220.676 261.186 219.804 262.362 218.95 263.644C218.097 264.925 217.168 266.257 216.227 267.64C215.285 269.023 214.161 270.348 213.095 271.763C212.029 273.178 210.933 274.615 209.774 276.041L206.152 280.223C203.811 283.111 201.104 285.651 198.665 288.276C197.467 289.611 196.143 290.754 194.922 291.931L191.368 295.332C186.674 299.497 182.872 302.988 180.931 304.998C177.977 308.315 175.141 314.774 184.63 309.433C187.173 308.009 189.638 306.451 192.015 304.765L195.321 302.497C196.368 301.718 197.348 300.893 198.334 300.109C200.277 298.504 202.239 296.997 204.038 295.296L209.462 289.988C213.488 285.745 217.243 281.252 220.704 276.537C225.457 270.098 229.737 263.324 233.51 256.268C234.109 255.063 235.038 253.312 236.209 251.148C236.781 250.059 237.471 248.897 238.107 247.596L240.087 243.412C240.774 241.934 241.54 240.405 242.251 238.778C242.911 237.136 243.59 235.437 244.287 233.703C245.772 230.264 246.891 226.523 248.103 222.813C248.751 220.97 249.21 219.07 249.672 217.198L251.037 211.649C251.765 207.979 252.305 204.434 252.807 201.216C253.093 197.965 253.301 195.033 253.403 192.582C253.467 190.65 253.354 188.716 253.066 186.805C251.832 179.389 248.576 181.641 246.587 187.423Z" fill="white"/>
<path d="M179.346 312.378C179.026 312.399 178.705 312.345 178.41 312.218C178.115 312.092 177.854 311.898 177.647 311.652C176.211 309.87 178.735 306.126 180.27 304.412C182.12 302.494 185.649 299.225 190.786 294.67L194.314 291.292C194.67 290.955 195.027 290.622 195.384 290.285C196.275 289.463 197.18 288.613 198.011 287.686C198.842 286.759 199.708 285.904 200.576 285.013C202.23 283.312 203.94 281.555 205.462 279.676L209.105 275.471C209.801 274.617 210.48 273.726 211.152 272.843C211.569 272.298 211.981 271.758 212.399 271.227C212.781 270.718 213.182 270.209 213.58 269.701C214.248 268.849 214.906 268.011 215.497 267.15L218.218 263.157C218.521 262.704 218.831 262.255 219.136 261.817C219.67 261.047 220.184 260.307 220.629 259.565L222.579 256.294C222.954 255.656 223.312 255.057 223.649 254.501C224.335 253.353 224.927 252.362 225.301 251.617C232.337 238.156 237.692 223.881 241.246 209.113L242.959 201.133C243.282 199.744 243.494 198.459 243.692 197.211C243.838 196.32 243.977 195.466 244.141 194.674C244.319 193.692 244.512 192.767 244.692 191.931C244.841 191.229 244.979 190.591 245.077 190.02C245.226 189.04 245.454 188.074 245.758 187.131C247.102 183.232 248.909 181.07 250.681 181.229C252.299 181.366 253.374 183.143 253.962 186.667C254.261 188.639 254.381 190.633 254.319 192.626C254.219 195.011 254.016 197.929 253.718 201.305L253.604 202.054C253.141 205.031 252.617 208.407 251.936 211.833L250.51 217.621C250.066 219.43 249.604 221.302 248.966 223.118L248.312 225.141C247.349 228.131 246.351 231.22 245.127 234.066L243.084 239.116C242.611 240.186 242.126 241.209 241.658 242.196C241.399 242.734 241.147 243.264 240.902 243.788L238.92 247.977C238.506 248.82 238.077 249.601 237.672 250.341C237.44 250.76 237.216 251.168 237.007 251.562C235.838 253.724 234.914 255.467 234.317 256.665C230.518 263.771 226.21 270.593 221.426 277.077C217.943 281.812 214.17 286.327 210.127 290.594L204.672 295.932C203.325 297.203 201.888 298.369 200.498 299.497C199.963 299.925 199.437 300.357 198.908 300.797L198.079 301.465C197.366 302.052 196.626 302.645 195.859 303.214L191.225 306.383C189.244 307.777 187.187 309.058 185.063 310.221C183.349 311.372 181.393 312.11 179.346 312.378ZM250.481 183.001C249.873 183.001 248.549 184.427 247.419 187.714V187.73C247.147 188.574 246.946 189.44 246.816 190.318C246.715 190.908 246.574 191.566 246.417 192.3C246.239 193.115 246.048 194.018 245.882 195.008C245.716 195.801 245.585 196.612 245.442 197.491C245.244 198.703 245.021 200.075 244.692 201.503L242.977 209.491C239.39 224.404 233.984 238.819 226.881 252.414C226.483 253.207 225.875 254.225 225.171 255.401C224.841 255.952 224.487 256.547 224.112 257.184L222.152 260.464C221.685 261.239 221.15 262.013 220.594 262.815C220.294 263.244 219.989 263.683 219.688 264.136L216.97 268.141C216.355 269.032 215.676 269.904 214.982 270.788C214.594 271.284 214.2 271.784 213.815 272.298C213.392 272.833 212.984 273.367 212.567 273.911C211.884 274.802 211.193 275.715 210.469 276.603L206.827 280.806C205.273 282.726 203.533 284.513 201.852 286.242C200.995 287.123 200.146 287.997 199.328 288.881C198.451 289.856 197.508 290.734 196.596 291.585C196.239 291.913 195.883 292.242 195.544 292.572L191.99 295.973C186.867 300.52 183.371 303.758 181.578 305.617C179.628 307.806 178.758 310.119 179.04 310.529C179.04 310.529 179.92 311.064 184.198 308.654C186.272 307.52 188.28 306.271 190.212 304.911L194.818 301.768C195.531 301.234 196.244 300.656 196.957 300.084L197.781 299.417C198.303 298.984 198.84 298.549 199.375 298.118C200.801 296.957 202.152 295.865 203.437 294.651L208.849 289.355C212.837 285.145 216.559 280.691 219.993 276.018C224.722 269.608 228.982 262.865 232.74 255.842C233.324 254.663 234.257 252.902 235.435 250.728C235.645 250.33 235.875 249.913 236.112 249.48C236.506 248.767 236.922 248.009 237.317 247.203L239.292 243.031C239.535 242.507 239.791 241.972 240.052 241.426C240.515 240.457 240.993 239.466 241.447 238.426L243.471 233.376C244.674 230.589 245.656 227.541 246.606 224.592L247.267 222.544C247.884 220.788 248.337 218.959 248.768 217.197L250.184 211.45C250.847 208.097 251.369 204.742 251.829 201.781L251.936 201.091C252.225 197.801 252.426 194.91 252.522 192.559C252.586 190.68 252.476 188.799 252.194 186.94C251.688 183.91 250.907 183.04 250.526 183.01L250.481 183.001Z" fill="white"/>
<path d="M161.69 163.181C173.407 164.646 183.07 169.332 188.05 176.361C188.991 177.744 189.501 179.374 189.515 181.047C189.493 183.124 188.648 185.107 187.165 186.562C185.683 188.017 183.683 188.824 181.606 188.806C179.177 188.564 176.929 187.414 175.31 185.587C169.688 180.528 162.375 177.758 154.811 177.824C142.658 177.824 138.118 183.528 138.118 189.393C138.118 208.576 191.569 199.644 191.569 236.253C191.569 252.364 181.317 262.907 161.694 264.809V273.009C161.708 273.912 161.543 274.81 161.207 275.648C160.872 276.487 160.373 277.251 159.739 277.895C159.105 278.539 158.35 279.05 157.517 279.399C156.683 279.749 155.789 279.928 154.885 279.928C153.982 279.928 153.087 279.749 152.254 279.399C151.421 279.05 150.665 278.539 150.032 277.895C149.398 277.251 148.899 276.487 148.563 275.648C148.228 274.81 148.062 273.912 148.077 273.009V264.809C133.87 263.054 122.742 255.437 117.763 247.383C117.033 246.198 116.63 244.84 116.595 243.448C116.56 242.056 116.895 240.68 117.565 239.459C118.235 238.238 119.217 237.217 120.411 236.5C121.604 235.782 122.966 235.394 124.359 235.375C125.602 235.413 126.823 235.721 127.935 236.277C129.048 236.833 130.026 237.625 130.803 238.597C136.952 244.747 144.706 249.726 154.819 249.726C168.146 249.726 174.588 245.334 174.588 236.253C174.588 214.874 121.136 224.685 121.136 189.393C121.136 176.361 129.336 165.084 148.084 163.033V154.687C148.07 153.784 148.235 152.886 148.57 152.048C148.906 151.209 149.405 150.445 150.039 149.801C150.673 149.157 151.428 148.646 152.261 148.297C153.095 147.947 153.989 147.768 154.893 147.768C155.796 147.768 156.69 147.947 157.524 148.297C158.357 148.646 159.112 149.157 159.746 149.801C160.38 150.445 160.879 151.209 161.215 152.048C161.55 152.886 161.715 153.784 161.701 154.687L161.69 163.181Z" fill="white"/>
<path d="M488.891 252.851C486.61 248.546 477.127 234.453 461.389 214.705C453.506 204.844 444.05 193.589 433.13 181.51C427.695 175.478 421.747 169.229 415.801 162.883C409.659 156.572 404.175 149.653 399.434 142.233C397.579 139.192 396.004 135.989 394.728 132.664C393.068 128.473 391.826 122.871 389.4 116.358C388.1 112.803 386.299 109.452 384.052 106.406C381.488 102.874 378.056 100.063 374.088 98.2454C372.999 97.7796 371.871 97.4104 370.717 97.142C369.498 96.8588 368.249 96.7194 366.997 96.7266C364.533 96.731 362.096 97.2311 359.83 98.1972C357.47 99.191 355.376 100.723 353.716 102.671C351.913 104.77 350.817 107.382 350.582 110.138C350.434 112.602 350.798 115.069 351.651 117.384C352.364 119.475 353.236 121.254 353.864 122.932C354.491 124.609 355.213 126.3 355.7 128.035L356.503 130.603C356.72 131.471 356.934 132.335 357.145 133.195C358.737 139.751 359.456 146.488 359.284 153.233C358.957 162.704 357.253 172.078 354.225 181.059C353.044 185.338 351.468 190.245 351.785 191.967C351.963 192.824 352.626 192.858 354.047 191.48C354.404 191.136 354.805 190.703 355.257 190.172C355.676 189.621 356.134 188.967 356.644 188.211C357.932 186.275 359.068 184.242 360.042 182.131C364.91 171.609 367.469 160.168 367.548 148.575C367.55 143.352 367.066 138.14 366.104 133.006C365.05 127.801 363.498 122.709 361.47 117.801C360.561 115.928 359.923 113.936 359.573 111.883C359.547 111.534 359.547 111.183 359.573 110.834C359.616 110.54 359.683 110.251 359.773 109.969C360 109.324 360.36 108.733 360.83 108.235C362.161 106.927 363.875 106.079 365.723 105.814C366.691 105.659 367.679 105.681 368.639 105.88C369.754 106.129 370.826 106.545 371.817 107.113C374.186 108.541 376.205 110.481 377.724 112.793C379.584 115.603 381.047 118.656 382.072 121.866C383.32 125.381 384.377 129.352 385.879 133.63C387.493 138.13 389.553 142.456 392.027 146.546C394.084 149.962 396.325 153.264 398.738 156.438C401.769 160.473 405.644 165.017 410.025 169.853C418.835 179.425 429.114 190.758 439.104 202.5C459.173 225.836 477.749 250.344 484.825 258.23C494.649 269.134 494.793 263.893 488.891 252.851Z" fill="#1A1818"/>
<path d="M492.091 265.141C490.861 265.141 488.704 263.859 484.16 258.813C481.13 255.439 476.053 249.091 469.622 241.054C460.856 230.098 449.947 216.466 438.428 203.068C428.011 190.821 417.428 179.2 409.373 170.448C404.59 165.172 400.883 160.764 398.029 156.963C395.594 153.765 393.333 150.437 391.255 146.996C388.749 142.856 386.664 138.475 385.033 133.919C384.245 131.678 383.584 129.545 382.944 127.482C382.366 125.616 381.815 123.837 381.223 122.161C380.227 119.028 378.802 116.047 376.988 113.304C375.545 111.102 373.626 109.253 371.373 107.891C370.459 107.368 369.473 106.984 368.446 106.752C367.595 106.575 366.718 106.555 365.86 106.693C364.211 106.929 362.678 107.677 361.477 108.832C361.092 109.242 360.797 109.727 360.61 110.258C360.558 110.393 360.522 110.533 360.503 110.677C360.484 110.801 360.461 110.923 360.432 111.044C360.432 111.186 360.432 111.489 360.459 111.817C360.812 113.77 361.427 115.667 362.288 117.456C364.341 122.419 365.912 127.569 366.979 132.833C367.957 138.023 368.446 143.294 368.441 148.575C368.363 160.296 365.776 171.865 360.855 182.503C359.86 184.665 358.695 186.745 357.373 188.724C356.867 189.484 356.398 190.15 355.969 190.715C355.462 191.312 355.042 191.765 354.671 192.125C353.894 192.879 352.889 193.701 351.926 193.407C351.656 193.314 351.417 193.147 351.238 192.924C351.059 192.701 350.946 192.432 350.913 192.149C350.632 190.624 351.405 187.735 352.71 183.156C352.933 182.373 353.156 181.591 353.366 180.828L353.616 180.01C356.494 171.358 358.102 162.334 358.389 153.22C358.556 146.554 357.847 139.895 356.281 133.413L355.641 130.823L354.851 128.306C354.495 127.04 354.033 125.848 353.543 124.586L353.029 123.247C352.78 122.584 352.494 121.903 352.19 121.192C351.726 120.092 351.243 118.955 350.81 117.675C349.915 115.245 349.532 112.656 349.687 110.071C349.936 107.127 351.107 104.336 353.033 102.096C354.779 100.041 356.985 98.4261 359.471 97.3826C361.907 96.3529 364.526 95.8277 367.17 95.839C368.427 95.8478 369.679 95.9942 370.904 96.2757C372.108 96.5588 373.284 96.9447 374.421 97.429C378.54 99.301 382.103 102.211 384.76 105.873C387.066 108.982 388.909 112.408 390.232 116.046C391.505 119.464 392.459 122.641 393.3 125.456C394.09 128.09 394.772 130.363 395.555 132.341C396.811 135.618 398.363 138.773 400.189 141.769C404.909 149.135 410.357 156.008 416.451 162.284L420.551 166.657C425.2 171.601 429.594 176.282 433.779 180.917C443.672 191.858 453.189 203.04 462.073 214.15C477.955 234.084 487.426 248.214 489.665 252.437C495.397 263.162 493.586 264.43 492.998 264.847C492.734 265.038 492.417 265.141 492.091 265.141ZM366.995 104.816C367.608 104.815 368.219 104.878 368.819 105.005C370.025 105.272 371.183 105.721 372.254 106.336C374.742 107.828 376.862 109.86 378.457 112.283C380.365 115.157 381.864 118.282 382.913 121.568C383.512 123.261 384.068 125.063 384.655 126.951C385.289 128.999 385.943 131.115 386.721 133.32C388.309 137.763 390.339 142.035 392.781 146.072C394.823 149.461 397.046 152.737 399.441 155.887C402.263 159.644 405.938 164.011 410.671 169.241C418.733 178.004 429.332 189.642 439.765 201.91C451.305 215.327 462.225 228.975 471 239.941C477.417 247.963 482.478 254.287 485.472 257.622C489.879 262.521 491.519 263.228 491.948 263.326C492.08 262.629 491.617 259.868 488.089 253.269C485.879 249.104 476.485 235.098 460.679 215.261C451.818 204.179 442.319 193.026 432.455 182.106C428.28 177.471 423.899 172.81 419.25 167.871L415.136 163.489C408.959 157.126 403.438 150.158 398.657 142.689C396.775 139.604 395.177 136.356 393.881 132.983C393.074 130.94 392.382 128.634 391.58 125.962C390.746 123.177 389.797 120.024 388.55 116.668C387.286 113.192 385.526 109.916 383.325 106.944C380.856 103.53 377.545 100.814 373.714 99.0617C372.677 98.6167 371.604 98.2648 370.505 98.01C369.353 97.7427 368.173 97.6106 366.99 97.6161C364.642 97.6192 362.319 98.0951 360.159 99.0154C357.927 99.9521 355.947 101.401 354.379 103.245C352.697 105.197 351.673 107.63 351.454 110.197C351.321 112.543 351.673 114.89 352.487 117.094C352.901 118.309 353.368 119.411 353.821 120.481C354.133 121.215 354.43 121.921 354.689 122.607L355.195 123.926C355.676 125.174 356.177 126.461 356.548 127.782L358.001 132.971C359.604 139.605 360.33 146.42 360.161 153.243C359.853 162.519 358.22 171.703 355.311 180.516L355.069 181.309C354.864 182.054 354.639 182.844 354.414 183.626C353.552 186.183 352.952 188.821 352.623 191.5C352.907 191.299 353.173 191.075 353.418 190.829C353.757 190.5 354.131 190.086 354.569 189.582C354.945 189.083 355.395 188.443 355.892 187.698C357.16 185.797 358.277 183.8 359.232 181.724C364.042 171.32 366.57 160.008 366.648 148.546C366.737 138.1 364.69 127.746 360.632 118.12C359.677 116.167 359.016 114.082 358.671 111.935C358.641 111.541 358.641 111.144 358.671 110.75L358.741 110.363C358.776 110.102 358.843 109.847 358.94 109.602C359.207 108.863 359.622 108.187 360.159 107.614C361.629 106.16 363.527 105.214 365.573 104.916C366.044 104.843 366.519 104.809 366.995 104.814V104.816Z" fill="#1A1818"/>
<path d="M380.428 88.1778C381.189 85.3257 382.415 78.832 384.002 69.2706C384.765 64.4827 385.649 58.9319 386.642 52.6931C387.117 49.5701 387.616 46.2772 388.139 42.8144C388.504 40.7761 388.694 38.7104 388.708 36.6398C388.688 35.274 388.493 33.9165 388.127 32.6006C387.695 31.1258 387.016 29.7352 386.118 28.4883C384.457 26.3007 382.316 24.5241 379.859 23.2958C377.867 22.2814 375.812 21.3961 373.706 20.6452C369.784 19.1337 365.71 17.6399 361.453 16.2228C352.947 13.3707 343.779 10.697 334.016 8.42963C323.8 6.0619 313.467 4.22286 303.061 2.91985C297.642 2.23358 292.1 1.72017 286.461 1.31554L282.207 1.06422L280.068 0.94302L278.865 0.898468H278.035C277.721 0.898468 277.407 0.919835 277.095 0.941225C274.6 1.04253 272.239 2.0979 270.5 3.8895C269.656 4.80015 268.991 5.86137 268.539 7.01783C268.307 7.60143 268.116 8.20067 267.969 8.81107C267.819 9.43317 267.703 10.082 267.653 10.4635C267.502 11.5045 267.439 12.4492 267.35 13.4207C267.261 14.3921 267.172 15.5044 267.065 16.6738C266.855 19.0124 266.616 21.688 266.352 24.6488C265.86 30.5757 265.272 37.6611 264.621 45.5042C263.386 61.2047 262.111 80.0014 261.211 98.8533C259.314 136.555 259.102 174.455 260.384 188.07C261.405 198.985 265.109 212.528 266.145 186.527C267.525 156.758 268.491 135.914 269.644 111.044C270.25 98.6126 270.912 85.176 271.88 69.1315C272.37 61.1102 272.922 52.4329 273.619 42.9071C273.976 38.1442 274.355 33.1692 274.751 27.9535C274.964 25.3475 275.181 22.6803 275.404 19.9518C275.522 18.5888 275.641 17.2091 275.76 15.8128C275.883 14.4617 275.983 12.8734 276.127 11.7861C276.183 11.4011 276.197 11.319 276.234 11.1426C276.273 10.9685 276.327 10.798 276.395 10.6328C276.546 10.2466 276.834 9.92948 277.204 9.74155C277.412 9.64765 277.634 9.58747 277.862 9.56329C277.98 9.54817 278.099 9.53922 278.218 9.53652H278.742C279.899 9.58643 281.416 9.71482 282.842 9.80394C288.701 10.2211 295.689 10.8966 303.386 11.9947C320.785 14.5085 337.943 18.4772 354.679 23.8591C359.095 25.2851 363.487 26.7985 367.792 28.4009C369.902 29.2138 372.187 30.0052 374.03 30.8145C375.623 31.424 377.077 32.3451 378.308 33.5239C378.732 33.99 379.059 34.5354 379.271 35.1287C379.482 35.722 379.574 36.3513 379.54 36.9803C379.487 38.9333 379.299 40.8803 378.977 42.8073C378.431 47.0408 377.907 51.1299 377.401 55.0265C375.44 70.6235 374.038 83.1724 373.724 89.6287C372.847 107.523 376.674 102.828 380.428 88.1778Z" fill="#1A1818"/>
<path d="M263.789 202.37C261.035 202.37 259.803 191.487 259.491 188.143C258.149 173.903 258.511 134.657 260.313 98.7962C261.32 77.7446 262.725 58.1547 263.725 45.424L266.515 12.6808C266.581 11.9161 266.646 11.1514 266.766 10.3279C266.818 9.93751 266.944 9.25839 267.097 8.5953C267.256 7.94112 267.46 7.29899 267.709 6.67373C268.199 5.41665 268.921 4.26294 269.837 3.2727C271.732 1.30885 274.312 0.152386 277.039 0.0445521C277.361 0.0231619 277.689 0.00534756 278.017 0L280.101 0.048088L286.518 0.422456C292.657 0.868086 298.104 1.39567 303.177 2.03738C313.614 3.3449 323.976 5.18929 334.222 7.5632C343.409 9.70222 352.666 12.3315 361.744 15.3796C365.666 16.6826 369.68 18.1336 374.033 19.8145L374.323 19.925C376.362 20.6605 378.352 21.5238 380.282 22.5096C382.858 23.8045 385.103 25.6716 386.845 27.9677C387.803 29.2991 388.526 30.7838 388.984 32.3581C389.374 33.7478 389.581 35.1823 389.601 36.6254C389.606 38.5 389.448 40.3715 389.131 42.219L387.526 52.8285L384.886 69.406C383.282 79.1171 382.065 85.5039 381.296 88.3952C377.68 102.515 375.592 102.201 374.785 102.085C373.466 101.885 372.316 100.233 372.835 89.5734C373.125 83.5877 374.327 72.2473 376.516 54.9052L378.254 41.4525C378.497 39.979 378.628 38.4894 378.648 36.9962C378.686 36.4701 378.616 35.9418 378.442 35.4436C378.269 34.9455 377.995 34.4881 377.639 34.0996C376.492 33.0187 375.143 32.1754 373.669 31.6183C372.444 31.0835 370.979 30.5488 369.569 30.014C368.856 29.752 368.156 29.4793 367.466 29.2226C363.396 27.7075 359.118 26.2262 354.398 24.695C337.711 19.3319 320.604 15.3752 303.256 12.8662C296.509 11.9036 289.618 11.1693 282.775 10.6844L281.349 10.5828C280.399 10.5168 279.479 10.4509 278.712 10.417H278.22C278.151 10.417 278.06 10.4259 277.974 10.4366C277.846 10.4511 277.721 10.486 277.604 10.54C277.43 10.6304 277.295 10.7813 277.224 10.9643C277.174 11.0838 277.136 11.208 277.11 11.335C277.078 11.4794 277.065 11.5543 277.015 11.9019C276.921 12.6006 276.848 13.524 276.773 14.4562L274.522 42.9641C273.782 53.0692 273.206 62.2794 272.786 69.1671C271.78 85.7927 271.099 99.8104 270.548 111.071L267.049 186.551C266.422 202.293 264.866 202.334 263.841 202.361L263.789 202.37ZM278.031 1.78252C277.75 1.78252 277.452 1.80209 277.154 1.82348C274.884 1.90328 272.732 2.8567 271.147 4.48481C270.379 5.31461 269.774 6.2823 269.365 7.33685C269.145 7.8838 268.967 8.44623 268.83 9.01955C268.691 9.59708 268.579 10.2103 268.532 10.5721C268.415 11.3707 268.354 12.1015 268.29 12.8306L265.502 45.5647C264.502 58.2777 263.099 77.8498 262.092 98.8817C260.295 134.673 259.932 173.806 261.267 187.976C261.498 192.166 262.329 196.301 263.736 200.255C264.13 199.279 264.86 196.188 265.247 186.48L268.748 110.99C269.295 99.7231 269.978 85.7018 270.985 69.0655C271.406 62.1636 271.982 52.948 272.721 42.8304L274.974 14.31C275.053 13.3475 275.13 12.3903 275.228 11.6559C275.29 11.2245 275.306 11.1371 275.349 10.9429C275.399 10.7141 275.469 10.4904 275.559 10.2744C275.796 9.69004 276.241 9.21354 276.807 8.93577C277.099 8.79708 277.412 8.70674 277.734 8.66835C277.889 8.64924 278.045 8.63797 278.201 8.63452H278.736C279.547 8.67017 280.486 8.73613 281.452 8.81278L282.878 8.9126C289.768 9.40101 296.698 10.1407 303.486 11.1087C320.934 13.6334 338.141 17.6133 354.926 23.007C359.674 24.5453 363.976 26.0372 368.077 27.5613C368.769 27.8287 369.473 28.0961 370.17 28.351C371.61 28.8857 373.099 29.4401 374.37 29.9927C376.085 30.6459 377.648 31.6446 378.961 32.9267C379.951 34.0245 380.474 35.4654 380.418 36.9427C380.403 38.5355 380.266 40.1249 380.008 41.6967L378.271 55.1387C376.12 72.192 374.885 83.8087 374.601 89.6679C374.229 97.3452 374.792 99.5662 375.072 100.185C375.739 99.4717 377.389 96.4414 379.557 87.9602V87.9513C380.302 85.1581 381.532 78.6501 383.113 69.1279L387.355 41.9605C387.656 40.2095 387.807 38.436 387.806 36.6593C387.788 35.3706 387.604 34.0896 387.257 32.8482C386.855 31.4751 386.222 30.1804 385.386 29.0194C383.8 26.9438 381.763 25.2565 379.428 24.0854C377.564 23.1326 375.642 22.2991 373.673 21.5899L373.378 21.4758C369.047 19.8056 365.052 18.3635 361.161 17.0694C352.136 14.0391 342.933 11.4242 333.805 9.29763C323.617 6.93911 313.316 5.10545 302.94 3.8039C297.894 3.16576 292.481 2.64166 286.384 2.19959L278.031 1.78252Z" fill="#1A1818"/>
<g opacity="0.4">
<path opacity="0.4" d="M279.93 200.302H299.44C299.44 200.302 306.4 192.138 312.669 195.218C318.939 198.298 319.645 205.646 319.645 205.646H336.603L353.586 43.809L287.486 30.8821L279.93 200.302Z" fill="#47C1E6"/>
</g>
<path d="M283.79 45.8908C282.911 48.5503 281.793 57.9976 280.76 72.0938C279.69 86.1757 278.694 104.903 278.095 126.135C277.883 131.373 277.321 145.238 276.715 160.245C276.444 167.751 276.211 175.544 276.102 182.692C276.047 186.257 276.023 189.68 276.041 192.813C276.041 194.774 276.041 196.635 276.041 198.398C276.041 199.349 276.046 200.271 276.056 201.166L276.075 202.432L276.086 203.034C276.095 203.229 276.278 203.232 276.366 203.335C278.549 203.052 280.523 202.836 282.059 202.745L285.303 202.692C287.592 202.803 289.884 202.562 292.1 201.979C292.708 201.633 292.842 201.013 291.981 200.056C290.224 198.452 288.056 197.368 285.719 196.926C285.391 196.838 285.059 196.774 284.733 196.704L284.515 196.633L284.159 196.526L283.644 196.401C283.544 196.428 283.601 196.302 283.613 196.223L283.669 195.975L283.767 195.535L283.852 195.163L284.013 193.341C284.212 190.667 284.405 188.098 284.596 185.553C284.934 180.459 285.184 175.466 285.396 169.986C285.818 159.031 286.093 146.138 286.644 126.641C287 114.627 291.945 57.183 290.291 45.1795C289.177 36.8338 285.897 39.0441 283.79 45.8908Z" fill="#1A1818"/>
<path d="M276 204.266L275.754 203.983C275.588 203.889 275.449 203.754 275.35 203.591C275.251 203.428 275.195 203.243 275.189 203.052L275.144 198.389V192.801C275.126 189.664 275.144 186.245 275.205 182.664C275.301 176.295 275.503 168.938 275.818 160.204L277.198 126.088C277.747 106.659 278.693 87.4611 279.871 72.0173C280.896 58.0602 282.01 48.4364 282.945 45.6146C283.747 43.0157 285.451 38.6628 287.925 38.9034C289.577 39.0407 290.642 41.0425 291.176 45.0424C292.342 53.5041 290.299 83.7445 288.806 105.826C288.182 115.06 287.643 123.037 287.538 126.653C287.36 133.106 287.203 138.839 287.067 144.015C286.791 154.439 286.574 162.673 286.292 170.01C286.066 175.806 285.811 180.762 285.49 185.6L284.638 195.73L285.009 195.851C285.326 195.91 285.634 195.974 285.939 196.052C288.446 196.522 290.767 197.697 292.631 199.439C292.917 199.697 293.14 200.016 293.283 200.374C293.426 200.731 293.486 201.116 293.458 201.5C293.413 201.765 293.307 202.015 293.148 202.232C292.989 202.449 292.781 202.625 292.542 202.747C290.636 203.373 288.631 203.641 286.627 203.537L282.071 203.631C280.738 203.71 278.896 203.901 276.479 204.214L276 204.266ZM287.754 40.6735C287.294 40.6735 285.912 42.0193 284.642 46.144V46.1619C283.77 48.8 282.652 58.5147 281.652 72.1439C280.481 87.5645 279.536 106.739 278.989 126.144L277.609 160.268C277.292 169.002 277.093 176.334 276.996 182.692C276.941 186.257 276.918 189.667 276.936 192.796V198.386L276.966 202.346C279.084 202.083 280.738 201.917 282.009 201.842L286.583 201.746C288.304 201.816 290.025 201.624 291.688 201.175V201.184C291.608 200.975 291.481 200.788 291.317 200.635C289.683 199.157 287.668 198.166 285.501 197.772C285.217 197.699 284.939 197.64 284.663 197.583L283.659 197.305L283.383 197.378L282.611 196.655L283.014 194.58L283.711 185.466C284.034 180.653 284.289 175.715 284.511 169.933C284.795 162.609 285.012 154.38 285.287 143.96C285.424 138.791 285.576 133.051 285.757 126.596C285.864 122.944 286.379 115.334 287.03 105.698C288.517 83.6964 290.552 53.5611 289.413 45.2706C288.916 41.563 288.064 40.6913 287.779 40.6664L287.754 40.6735Z" fill="#1A1818"/>
<path d="M293.975 35.4438C297.183 37.7147 318.354 43.7129 346.533 49.1496L347.365 49.3154L347.843 49.4134L348.008 49.4366C348.228 49.4556 348.445 49.4968 348.655 49.5595C348.788 49.5959 348.911 49.6634 349.012 49.7564C349.114 49.8493 349.192 49.9652 349.24 50.0943C349.324 50.4051 349.342 50.7298 349.294 51.048C348.987 53.3653 348.648 55.9303 348.295 58.6023C347.939 61.3848 347.582 64.2903 347.226 67.1976C345.843 78.8393 344.779 90.5932 345.607 95.0353C346.272 98.5843 349.476 103.458 351.331 95.5005C353.178 87.81 354.628 80.0298 355.675 72.1905C356.199 68.3188 356.691 64.1245 357.254 59.1121C357.393 57.8584 357.54 56.5512 357.693 55.1905C357.768 54.5084 357.845 53.812 357.925 53.1014C357.958 52.6112 358.219 51.0711 358.237 49.8929C358.292 48.6572 358.11 47.4223 357.702 46.2547C357.262 45.06 356.498 44.0109 355.497 43.2245C354.425 42.4161 353.197 41.84 351.891 41.5329C351.226 41.3546 350.474 41.212 349.837 41.0765L348.531 40.8252C340.561 39.2869 303.112 28.6649 294.77 29.0054C288.984 29.2371 289.813 32.6773 293.975 35.4438Z" fill="#1A1818"/>
<path d="M348.72 100.686H348.673C346.534 100.638 345.108 97.2989 344.723 95.1973C344.01 91.3827 344.545 82.185 346.328 67.0906L348.401 50.9302C348.424 50.7525 348.421 50.5722 348.39 50.3955C348.226 50.3652 348.085 50.3527 347.962 50.3366L346.358 50.0319C318.091 44.5773 296.909 38.6023 293.467 36.1852C290.724 34.3581 289.367 32.2637 289.84 30.5792C290.132 29.5347 291.216 28.2619 294.722 28.1157C300.679 27.8626 320.315 32.884 334.69 36.54C340.898 38.1175 346.26 39.4829 348.691 39.9517L350.454 40.3082C350.989 40.4187 351.579 40.5435 352.107 40.6825C353.532 41.0211 354.872 41.6523 356.041 42.5363C357.17 43.4268 358.03 44.6135 358.525 45.9641C358.979 47.2364 359.18 48.5846 359.119 49.9338C359.087 50.787 359.01 51.6379 358.887 52.4828C358.848 52.7858 358.814 53.0318 358.805 53.178L358.131 59.2243C357.648 63.5255 357.121 68.0905 356.55 72.324C355.497 80.1906 354.041 87.9981 352.19 95.7161C351.907 96.9371 351.028 100.686 348.72 100.686ZM295.198 29.8822C295.057 29.8822 294.921 29.8822 294.795 29.8911C292.622 29.9803 291.697 30.5489 291.556 31.0516C291.36 31.7485 292.187 33.1906 294.465 34.7022L294.485 34.7164C297.326 36.7253 317.051 42.5595 346.697 48.276L348.023 48.5417C348.329 48.57 348.631 48.6297 348.925 48.7199C349.192 48.7979 349.437 48.9387 349.638 49.1307C349.84 49.3227 349.993 49.5602 350.083 49.8233C350.208 50.2458 350.24 50.6902 350.178 51.1263L348.101 67.3151C346.354 82.0191 345.805 91.2936 346.474 94.8783C346.902 97.1599 348.126 98.8996 348.713 98.9121C348.727 98.9121 349.622 98.8783 350.454 95.3043C352.292 87.6411 353.738 79.8889 354.784 72.078C355.353 67.8624 355.878 63.3098 356.36 59.0193L357.03 53.0104C357.039 52.8821 357.074 52.5969 357.119 52.2475C357.233 51.4657 357.305 50.6786 357.336 49.8892C357.391 48.7634 357.227 47.6377 356.855 46.5738C356.472 45.5323 355.808 44.6173 354.937 43.9303C353.96 43.1977 352.841 42.6762 351.652 42.3991C351.148 42.2654 350.597 42.1496 350.087 42.0426L348.347 41.7003C345.866 41.2208 340.739 39.9178 334.248 38.2654C320.303 34.7128 301.314 29.8822 295.198 29.8822Z" fill="#1A1818"/>
<path d="M257.405 218.683C256.8 220.919 256.981 223.295 257.919 225.412C258.621 227.221 259.659 228.88 260.978 230.304C261.781 231.18 262.681 231.964 263.66 232.639C264.656 233.312 265.707 233.898 266.803 234.391C271.474 236.193 276.454 237.058 281.459 236.936C286.366 237.091 291.758 237.156 297.489 237.102C300.73 237.07 310.072 237.375 319.466 237.348C321.838 237.33 324.091 237.348 326.551 237.223C329.062 237.161 331.539 236.637 333.86 235.676C334.98 235.182 336.015 234.513 336.925 233.694C337.711 232.966 338.366 232.108 338.861 231.157C339.605 229.83 339.876 228.289 339.63 226.787C339.46 225.934 338.968 225.179 338.257 224.678C337.972 224.478 337.644 224.347 337.3 224.294C336.955 224.241 336.603 224.269 336.271 224.375C335.75 224.58 335.27 224.876 334.854 225.25C334.471 225.575 334.157 225.658 333.941 226.077C333.608 226.681 333.123 227.188 332.535 227.548C331.846 227.873 331.115 228.099 330.362 228.216C327.846 228.478 325.313 228.528 322.788 228.364C316.573 228.259 309.341 228.434 297.879 228.542C296.259 228.559 293.109 228.38 289.193 228.136L282.844 227.733C280.58 227.589 278.304 227.477 276.202 227.216C271.985 226.769 268.448 225.407 266.794 223.585C265.962 222.741 265.275 221.765 264.76 220.698C264.318 219.806 264.106 219.093 263.888 218.559C263.249 217.118 262.789 215.846 261.591 215.464C261.229 215.371 260.852 215.36 260.486 215.431C260.12 215.503 259.774 215.656 259.475 215.879C258.504 216.569 257.779 217.552 257.405 218.683Z" fill="#1A1818"/>
<path d="M318.251 238.241C313.007 238.241 307.789 238.145 303.905 238.073C301.053 238.024 298.795 237.981 297.497 237.992C292.032 238.04 286.624 237.991 281.429 237.827C276.307 237.948 271.212 237.055 266.435 235.202C265.295 234.689 264.2 234.079 263.164 233.38C262.121 232.66 261.164 231.822 260.312 230.885C258.922 229.383 257.828 227.632 257.089 225.724C256.067 223.4 255.887 220.792 256.581 218.35C257.025 217.042 257.877 215.911 259.011 215.122C259.417 214.833 259.883 214.637 260.374 214.549C260.864 214.461 261.369 214.483 261.85 214.612C263.344 215.088 263.954 216.484 264.544 217.833L264.706 218.2C264.786 218.393 264.854 218.58 264.931 218.787C265.112 219.301 265.322 219.804 265.56 220.295C266.031 221.273 266.66 222.168 267.421 222.943C268.945 224.621 272.335 225.902 276.299 226.33C278.025 226.544 279.904 226.66 281.72 226.771L289.253 227.246C293.308 227.5 296.324 227.64 297.873 227.651C301.438 227.617 304.584 227.576 307.426 227.541C313.62 227.462 318.508 227.4 322.807 227.471L324.064 227.498C326.114 227.623 328.171 227.57 330.212 227.337C330.875 227.234 331.52 227.037 332.128 226.754C332.554 226.479 332.906 226.104 333.155 225.662C333.351 225.293 333.645 224.985 334.003 224.771C334.1 224.708 334.193 224.641 334.281 224.567L334.481 224.41C334.928 224.02 335.444 223.718 336.003 223.519C336.464 223.373 336.952 223.335 337.43 223.407C337.908 223.479 338.363 223.659 338.761 223.935C339.671 224.562 340.298 225.523 340.508 226.608C340.794 228.306 340.495 230.05 339.659 231.555C339.116 232.597 338.399 233.539 337.538 234.339C336.557 235.224 335.44 235.947 334.23 236.478C331.812 237.497 329.225 238.049 326.602 238.107C324.556 238.204 322.697 238.214 320.72 238.225H319.472L318.251 238.241ZM297.973 236.207C299.321 236.207 301.399 236.246 303.937 236.291C308.116 236.368 313.83 236.469 319.461 236.457H320.709C322.657 236.446 324.499 236.435 326.502 236.341C328.9 236.293 331.268 235.794 333.481 234.87C334.518 234.418 335.477 233.801 336.319 233.045C337.028 232.385 337.619 231.609 338.067 230.751C338.724 229.615 338.966 228.288 338.754 226.993C338.634 226.368 338.283 225.812 337.77 225.435C337.596 225.307 337.395 225.222 337.183 225.186C336.971 225.15 336.753 225.165 336.547 225.229C336.189 225.366 335.859 225.567 335.574 225.822L335.395 225.965C335.27 226.068 335.14 226.164 335.005 226.254C334.802 226.391 334.77 226.419 334.734 226.491C334.314 227.254 333.699 227.891 332.951 228.339C332.172 228.715 331.341 228.973 330.486 229.104C328.339 229.358 326.172 229.417 324.014 229.282L322.766 229.255C318.488 229.18 313.618 229.255 307.437 229.325C304.584 229.36 301.44 229.402 297.879 229.435C296.289 229.435 293.223 229.282 289.128 229.027L281.601 228.551C279.756 228.439 277.847 228.321 276.084 228.102C271.651 227.631 267.922 226.164 266.125 224.181C265.239 223.278 264.506 222.237 263.954 221.099C263.683 220.548 263.445 219.982 263.241 219.403C263.173 219.225 263.112 219.047 263.048 218.901L262.893 218.544C262.358 217.296 261.98 216.526 261.305 216.311C261.073 216.257 260.832 216.257 260.599 216.309C260.367 216.362 260.149 216.466 259.963 216.614C259.147 217.205 258.539 218.037 258.223 218.993V219.008C257.718 221.034 257.9 223.171 258.74 225.082C259.403 226.786 260.382 228.35 261.626 229.69C262.386 230.522 263.239 231.264 264.168 231.902C265.115 232.539 266.113 233.096 267.153 233.565C271.719 235.316 276.584 236.154 281.472 236.034C286.642 236.196 292.021 236.246 297.47 236.198L297.973 236.207Z" fill="#1A1818"/>
<path d="M342.247 204.081C341.277 204.18 340.365 204.59 339.647 205.248C338.986 205.716 338.37 206.245 337.809 206.828C337.206 207.5 336.543 208.271 335.887 209.156C332.855 213.78 331.465 219.289 331.941 224.799L332.119 226.701C332.179 227.648 332.308 228.589 332.502 229.517C332.686 230.66 332.962 231.785 333.329 232.883C333.52 233.466 333.7 234.063 333.921 234.655L334.725 236.398C335.767 238.594 337.214 240.574 338.991 242.234C340.164 243.431 341.707 244.197 343.37 244.407C344.542 244.335 345.648 243.845 346.488 243.025C346.935 242.693 347.245 242.208 347.358 241.663C347.472 241.118 347.382 240.55 347.105 240.066C345.634 237.688 344.77 236.132 343.638 234.122C342.015 231.296 340.952 228.184 340.506 224.956C340.565 222.012 341.255 219.115 342.529 216.46C342.855 215.594 343.388 214.856 343.743 214.054C344.192 213.316 344.65 212.628 345.005 211.951C345.416 211.406 345.774 210.824 346.074 210.211C346.337 209.775 346.531 209.301 346.648 208.806C346.715 208.197 346.649 207.581 346.456 206.999C346.262 206.418 345.946 205.885 345.529 205.437C345.111 204.988 344.602 204.635 344.036 204.401C343.47 204.167 342.86 204.058 342.247 204.081Z" fill="#1A1818"/>
<path d="M343.228 245.302C341.405 245.059 339.714 244.221 338.416 242.918C336.542 241.172 335.014 239.088 333.911 236.776L333.107 235.027C332.909 234.508 332.761 234.047 332.617 233.589L332.478 233.157C332.097 232.022 331.81 230.858 331.619 229.676C331.42 228.719 331.289 227.749 331.228 226.774L331.05 224.883C330.55 219.162 331.994 213.439 335.15 208.64C335.879 207.66 336.592 206.84 337.134 206.234C337.631 205.7 338.18 205.216 338.772 204.788L339.087 204.546C339.961 203.76 341.069 203.284 342.241 203.19C343.007 203.188 343.766 203.348 344.467 203.657C345.169 203.967 345.798 204.419 346.314 204.986C346.792 205.517 347.148 206.147 347.357 206.83C347.565 207.513 347.621 208.234 347.521 208.942C347.432 209.426 347.26 209.891 347.011 210.316L346.866 210.603C346.542 211.265 346.154 211.895 345.708 212.482C345.53 212.865 345.205 213.373 344.877 213.899L344.492 214.517C344.338 214.857 344.166 215.188 343.979 215.51C343.738 215.915 343.528 216.338 343.351 216.774C342.142 219.302 341.474 222.055 341.389 224.856C341.774 227.754 342.699 230.554 344.118 233.111L344.701 234.202C345.679 235.942 346.526 237.442 347.858 239.596C348.251 240.247 348.392 241.02 348.254 241.768C348.117 242.516 347.71 243.188 347.111 243.656C346.11 244.641 344.782 245.225 343.38 245.296C343.326 245.296 343.28 245.302 343.228 245.302ZM342.194 204.97C341.448 205.098 340.755 205.438 340.198 205.951L339.863 206.207C339.361 206.564 338.897 206.97 338.476 207.419C337.957 207.999 337.276 208.779 336.603 209.687C333.693 214.136 332.365 219.435 332.833 224.731L333.011 226.619C333.065 227.527 333.184 228.43 333.367 229.321C333.542 230.429 333.809 231.52 334.164 232.583L334.314 233.049C334.451 233.476 334.588 233.909 334.751 234.341L335.53 236.025C336.524 238.115 337.901 239.999 339.59 241.58C340.589 242.623 341.905 243.304 343.333 243.517H343.342C344.286 243.453 345.177 243.056 345.856 242.398C346.175 242.079 346.857 241.271 346.374 240.573C344.997 238.35 344.145 236.829 343.155 235.077L342.538 233.926C341.021 231.186 340.033 228.186 339.628 225.081C339.66 221.963 340.376 218.891 341.726 216.081C341.926 215.584 342.164 215.103 342.439 214.642C342.617 214.327 342.795 214.015 342.932 213.692L343.382 212.952C343.685 212.469 343.977 212.004 344.219 211.539C344.623 211.002 344.977 210.429 345.276 209.828L345.435 209.51C345.586 209.257 345.699 208.983 345.772 208.698C345.836 208.243 345.799 207.78 345.664 207.342C345.528 206.904 345.298 206.5 344.989 206.161C344.643 205.785 344.223 205.486 343.755 205.281C343.287 205.077 342.782 204.971 342.271 204.972H342.2L342.194 204.97Z" fill="#1A1818"/>
<path d="M317.18 195.623C313.443 194.936 309.6 195.075 305.923 196.031C302.338 197.254 299.178 200.596 299.458 204.371C299.624 206.02 300.297 207.577 301.385 208.828C302.969 210.719 305.176 211.984 307.609 212.393C310.042 212.802 312.542 212.329 314.657 211.059C316.773 209.789 318.365 207.806 319.149 205.466C319.932 203.127 319.854 200.584 318.93 198.297" fill="#1A1818"/>
<path d="M315.271 191.846C314.353 191.211 313.293 190.815 312.184 190.692C309.828 190.267 307.409 190.341 305.084 190.91C303.147 191.38 301.328 192.242 299.737 193.443C298.146 194.644 296.819 196.158 295.836 197.892C294.507 200.269 294.046 203.034 294.533 205.714C295.066 208.323 296.414 210.695 298.383 212.487C300.198 214.227 302.415 215.49 304.836 216.165C308.436 217.193 312.294 216.793 315.606 215.049C317.185 214.173 318.556 212.964 319.622 211.507C320.689 210.05 321.427 208.379 321.784 206.609C322.072 205.529 322.121 204.4 321.927 203.3C321.733 202.2 321.302 201.156 320.663 200.24C320.219 199.796 319.67 199.471 319.068 199.294C318.465 199.117 317.828 199.094 317.214 199.227C316.684 199.299 316.189 199.533 315.797 199.897C315.405 200.261 315.135 200.738 315.025 201.261C314.855 202.348 314.484 203.393 313.931 204.343C313.498 205.113 312.954 205.815 312.317 206.427C311.534 207.137 310.56 207.603 309.515 207.767C308.661 207.913 307.787 207.885 306.944 207.685C306.101 207.485 305.307 207.117 304.61 206.603C303.899 206.002 303.452 205.147 303.362 204.22C303.355 203.695 303.488 203.177 303.749 202.721C304.142 202.054 304.665 201.472 305.287 201.01C305.975 200.489 306.747 200.089 307.569 199.828C308.478 199.542 309.41 199.333 310.355 199.202C311.941 199.096 313.509 198.796 315.023 198.311C317.745 197.004 317.442 193.794 315.271 191.846Z" fill="#1A1818"/>
<path d="M308.845 217.607C307.406 217.608 305.974 217.41 304.59 217.018C302.027 216.306 299.68 214.968 297.763 213.124C295.661 211.211 294.225 208.676 293.663 205.89C293.135 203.001 293.63 200.018 295.064 197.455C296.104 195.615 297.511 194.008 299.197 192.733C300.883 191.459 302.814 190.545 304.868 190.047C307.314 189.443 309.86 189.364 312.339 189.815C313.612 189.978 314.826 190.449 315.875 191.188C316.563 191.764 317.101 192.499 317.443 193.329C317.784 194.158 317.919 195.059 317.836 195.953C317.762 196.481 317.581 196.99 317.305 197.447C317.03 197.904 316.664 198.301 316.232 198.614C316.483 198.508 316.743 198.422 317.009 198.359C317.781 198.188 318.585 198.217 319.343 198.443C320.101 198.67 320.789 199.085 321.342 199.651C322.077 200.668 322.577 201.834 322.806 203.067C323.035 204.3 322.987 205.569 322.667 206.781C322.289 208.683 321.5 210.478 320.355 212.043C319.21 213.607 317.737 214.902 316.039 215.837C313.826 217.017 311.353 217.626 308.845 217.607ZM309.159 191.311C307.856 191.314 306.558 191.47 305.292 191.776C303.474 192.217 301.766 193.027 300.272 194.155C298.779 195.282 297.533 196.704 296.611 198.332C295.384 200.521 294.959 203.07 295.408 205.539C295.9 207.965 297.156 210.17 298.991 211.831C300.697 213.475 302.786 214.668 305.069 215.302C308.447 216.269 312.067 215.898 315.178 214.264C316.639 213.449 317.906 212.329 318.895 210.981C319.884 209.632 320.571 208.086 320.909 206.448C321.168 205.505 321.223 204.518 321.069 203.552C320.916 202.586 320.557 201.665 320.018 200.849C319.681 200.522 319.27 200.282 318.819 200.149C318.369 200.016 317.893 199.994 317.433 200.086C317.007 200.191 316.023 200.521 315.909 201.375C315.725 202.573 315.318 203.726 314.709 204.774C314.23 205.622 313.63 206.395 312.927 207.068C312.015 207.898 310.879 208.443 309.661 208.635C308.688 208.799 307.691 208.766 306.73 208.538C305.77 208.31 304.865 207.89 304.069 207.305C303.608 206.93 303.227 206.465 302.951 205.938C302.675 205.411 302.51 204.833 302.465 204.239C302.45 203.561 302.618 202.891 302.952 202.3C303.402 201.515 304.009 200.831 304.734 200.289C305.504 199.709 306.366 199.262 307.283 198.967C308.237 198.67 309.214 198.45 310.203 198.311L311.417 198.147C312.506 198.069 313.58 197.849 314.613 197.494C314.988 197.343 315.318 197.098 315.57 196.782C315.823 196.467 315.99 196.091 316.055 195.692C316.097 195.088 315.992 194.483 315.75 193.928C315.508 193.373 315.136 192.884 314.665 192.503L314.654 192.493C313.854 191.986 312.948 191.667 312.007 191.56C311.067 191.395 310.114 191.311 309.159 191.311ZM315.308 199.154C314.133 199.573 312.906 199.831 311.661 199.922L310.481 200.084C309.589 200.207 308.708 200.404 307.848 200.671C307.116 200.902 306.429 201.258 305.818 201.723C305.297 202.107 304.858 202.592 304.528 203.149C304.342 203.461 304.247 203.819 304.253 204.182C304.334 204.818 304.63 205.407 305.093 205.851C305.698 206.302 306.388 206.626 307.121 206.803C307.854 206.981 308.616 207.01 309.36 206.887C310.247 206.75 311.074 206.353 311.736 205.746C313.005 204.498 313.848 202.882 314.144 201.127C314.255 200.341 314.674 199.63 315.308 199.152V199.154Z" fill="#1A1818"/>
<path d="M339.024 133.935C337.461 135.801 336.122 147.126 335.411 162.09C335.307 164.211 334.591 170.275 333.956 176.402C333.348 182.532 332.819 188.733 333.801 191.245C334.594 193.241 337.924 196.346 339.452 192.22C340.967 188.254 342.023 184.127 342.598 179.92C343.161 175.774 343.503 170.901 343.901 163.215C344.008 161.042 345.109 154.837 345.73 148.582C346.377 142.327 346.535 136.03 345.484 133.841C344.042 130.801 340.855 131.568 339.024 133.935Z" fill="#1A1818"/>
<path d="M337.302 195.145C336.33 194.984 335.418 194.57 334.658 193.944C333.898 193.318 333.316 192.503 332.972 191.58C331.929 188.906 332.423 182.846 333.069 176.322C333.272 174.361 333.482 172.423 333.678 170.617C334.092 166.789 334.45 163.487 334.519 162.061C334.885 154.386 335.99 136.247 338.327 133.393C338.859 132.627 339.574 132.006 340.407 131.586C341.24 131.167 342.165 130.963 343.097 130.992C343.8 131.087 344.466 131.367 345.027 131.802C345.587 132.238 346.023 132.814 346.289 133.472C347.65 136.302 347.077 144.22 346.616 148.689C346.284 152.038 345.813 155.386 345.434 158.074C345.102 160.436 344.84 162.297 344.792 163.272C344.412 170.58 344.079 175.676 343.482 180.054C342.896 184.321 341.825 188.507 340.289 192.532C339.493 194.671 338.243 195.141 337.334 195.152L337.302 195.145ZM342.682 132.739C342.092 132.796 341.522 132.981 341.012 133.282C340.501 133.583 340.063 133.992 339.728 134.48L339.707 134.507C338.603 135.826 337.122 144.88 336.298 162.136C336.227 163.61 335.867 166.949 335.45 170.799C335.254 172.61 335.044 174.543 334.842 176.503C334.372 181.256 333.658 188.446 334.632 190.929C335.07 192.033 336.386 193.373 337.306 193.373H337.318C337.951 193.373 338.375 192.58 338.619 191.92C340.11 188.011 341.15 183.944 341.719 179.799C342.306 175.486 342.639 170.436 343.017 163.17C343.067 162.118 343.336 160.218 343.673 157.823C344.049 155.149 344.518 151.819 344.847 148.502C345.576 141.429 345.514 135.964 344.683 134.242C344.547 133.858 344.309 133.519 343.995 133.259C343.681 133 343.303 132.83 342.901 132.767C342.828 132.754 342.755 132.744 342.682 132.739Z" fill="#1A1818"/>
<path d="M358.21 249.99C358.948 250.385 360.579 250.76 362.861 251.772C365.89 253.118 368.663 254.977 371.06 257.266C374.713 260.906 378.017 264.879 380.93 269.134C384.616 274.157 388.843 279.624 393.52 285.225C396.156 288.405 403.554 297.76 411.589 306.624C419.589 315.521 428.213 323.898 432.231 326.03C435.463 327.747 441.201 328.18 436.104 321.781C430.313 314.417 426.122 309.399 420.942 303.567C415.762 297.735 409.59 291.073 400.329 280.027C399.023 278.462 396.643 275.284 393.775 271.268C390.85 267.273 387.714 262.403 383.857 257.457C381.923 254.962 379.768 252.646 377.419 250.539C375.158 248.512 372.618 246.821 369.877 245.516C366.08 243.52 361.734 242.824 357.504 243.532C354.233 244.453 353.583 246.061 354.132 247.109C355.194 248.433 356.608 249.431 358.21 249.99Z" fill="#1A1818"/>
<path d="M436.181 328.019C434.651 327.952 433.157 327.542 431.807 326.82C427.193 324.369 417.673 314.731 410.923 307.212C404.461 300.082 398.484 292.733 394.912 288.339C394.055 287.282 393.347 286.414 392.828 285.788C388.55 280.672 384.31 275.244 380.204 269.654C377.319 265.451 374.054 261.522 370.45 257.915C368.127 255.691 365.437 253.886 362.499 252.58C361.251 252.023 360.215 251.67 359.385 251.385C358.845 251.22 358.318 251.016 357.807 250.776C356.024 250.158 354.466 249.02 353.335 247.51C353.164 247.186 353.07 246.827 353.059 246.46C353.048 246.094 353.12 245.73 353.271 245.396C353.627 244.562 354.611 243.41 357.256 242.665C361.7 241.908 366.27 242.628 370.265 244.715C373.082 246.051 375.69 247.789 378.008 249.874C380.399 252.016 382.591 254.369 384.557 256.906C386.982 260.022 389.074 263.031 391.099 265.941C392.279 267.637 393.402 269.25 394.495 270.742C397.338 274.724 399.711 277.897 401.012 279.458C407.762 287.51 412.974 293.321 417.161 297.996C418.746 299.765 420.217 301.403 421.618 302.987C426.835 308.855 431.097 313.973 436.812 321.239C437.612 322.246 440.058 325.317 438.548 327.137C438.244 327.451 437.874 327.693 437.464 327.845C437.055 327.998 436.616 328.057 436.181 328.019ZM360.32 244.107C359.451 244.089 358.583 244.184 357.738 244.389C355.598 244.995 355.044 245.792 354.909 246.105C354.862 246.197 354.838 246.297 354.838 246.4C354.838 246.502 354.862 246.603 354.909 246.694C355.905 247.824 357.171 248.682 358.59 249.189L358.622 249.205C359.054 249.402 359.499 249.571 359.953 249.71C360.773 249.991 361.898 250.375 363.217 250.957C366.336 252.344 369.192 254.259 371.659 256.617C375.347 260.3 378.688 264.315 381.641 268.61C385.721 274.166 389.946 279.565 394.195 284.652C394.719 285.284 395.429 286.159 396.293 287.219C399.858 291.599 405.809 298.93 412.242 306.023C420.871 315.622 429.067 323.344 432.639 325.242C434.676 326.324 436.785 326.438 437.161 325.986C437.161 325.986 437.719 325.248 435.398 322.335C429.705 315.094 425.463 310 420.267 304.153C418.873 302.574 417.415 300.945 415.826 299.173C411.628 294.494 406.406 288.672 399.636 280.594C398.304 278.989 395.903 275.781 393.04 271.779C391.946 270.285 390.814 268.66 389.627 266.95C387.614 264.061 385.527 261.068 383.146 257.998C381.245 255.547 379.128 253.273 376.819 251.202C374.622 249.235 372.156 247.591 369.495 246.319C366.637 244.915 363.504 244.16 360.32 244.107Z" fill="#1A1818"/>
<path d="M260.07 95.9799C257.432 91.4951 250.997 90.2241 246.3 92.4594C244.01 93.7057 242.038 95.464 240.539 97.5974C239.04 99.7308 238.053 102.182 237.657 104.759C237.135 107.999 236.998 111.29 237.247 114.563C238.596 143.697 246.637 172.13 260.748 197.655" fill="white"/>
<path d="M258.024 89.4308C255.657 87.6135 252.708 86.7207 249.73 86.9193C248.498 86.9576 247.275 87.1456 246.088 87.479C244.729 87.8598 243.428 88.4228 242.22 89.1527C239.54 90.784 237.289 93.0333 235.655 95.7124C233.835 98.6838 232.661 102.006 232.211 105.461C231.809 108.906 231.762 112.383 232.071 115.837C232.52 123.224 233.509 130.569 235.028 137.812C236.914 147.742 239.6 157.502 243.06 166.999C245.173 172.743 247.679 178.335 250.559 183.735C252.399 187.373 254.689 190.766 257.375 193.833C260.206 196.553 265.709 198.516 262.202 190.712C258.384 181.68 255.901 175.336 252.96 167.73C251.502 163.922 249.988 159.778 248.366 154.751C246.41 148.726 244.777 142.6 243.475 136.4C243.033 134.308 242.438 130.176 241.935 125.021C241.744 122.438 241.495 119.605 241.4 116.643C241.188 113.726 241.181 110.799 241.379 107.882C241.735 102.534 244.545 97.9174 247.732 96.1777C249.113 95.3949 250.679 94.9972 252.267 95.0262C253.383 95.0484 254.493 95.1906 255.578 95.4504C257.73 95.8871 259.161 96.3506 260.026 95.3916C260.269 95.0499 260.428 94.6556 260.49 94.2409C260.552 93.8261 260.515 93.4026 260.382 93.0048C259.969 91.6055 259.148 90.3611 258.024 89.4308Z" fill="#1A1818"/>
<path d="M261.949 197.12C259.973 196.839 258.147 195.909 256.757 194.477C254.005 191.347 251.659 187.881 249.776 184.163C246.877 178.725 244.353 173.094 242.224 167.311C238.725 157.776 236.025 147.966 234.152 137.983C232.624 130.698 231.631 123.31 231.183 115.88C230.869 112.367 230.918 108.83 231.331 105.327C231.789 101.747 233.004 98.3043 234.896 95.2295C236.601 92.4275 238.955 90.0773 241.76 88.3775C243.035 87.6065 244.408 87.0122 245.842 86.611C247.094 86.261 248.383 86.0629 249.682 86.021C252.893 85.8007 256.073 86.7744 258.61 88.7554C259.859 89.8084 260.768 91.2069 261.224 92.775C261.394 93.3111 261.434 93.88 261.341 94.4348C261.248 94.9895 261.024 95.5142 260.689 95.9656C259.578 97.2009 257.99 96.8569 256.145 96.4683L254.988 96.2295C254.093 96.0421 253.183 95.9335 252.268 95.905C250.838 95.8815 249.428 96.2363 248.179 96.9335C244.995 98.6715 242.573 103.187 242.263 107.926C242.067 110.809 242.074 113.701 242.283 116.582C242.366 118.944 242.539 121.178 242.707 123.338L242.83 124.942C243.365 130.482 243.969 134.39 244.35 136.203C245.649 142.372 247.274 148.467 249.218 154.464C250.616 158.8 252.028 162.789 253.796 167.398C256.659 174.805 259.156 181.199 263.027 190.352C263.575 191.571 265.265 195.343 263.306 196.714C262.908 196.989 262.433 197.131 261.949 197.12ZM250.033 87.8071H249.746C248.594 87.8448 247.451 88.0202 246.341 88.3293C245.056 88.69 243.826 89.2224 242.684 89.9122C240.126 91.473 237.977 93.6209 236.414 96.1778C234.663 99.0436 233.532 102.245 233.095 105.575C232.7 108.961 232.656 112.379 232.962 115.775C233.407 123.12 234.389 130.423 235.899 137.625C237.753 147.515 240.427 157.234 243.894 166.68C245.994 172.386 248.482 177.94 251.341 183.306C253.146 186.864 255.383 190.186 258.001 193.197C259.741 194.871 261.807 195.605 262.279 195.266C262.489 195.118 262.742 194.076 261.388 191.076C257.498 181.88 254.995 175.471 252.118 168.051C250.336 163.406 248.91 159.388 247.509 155.022C245.544 148.967 243.903 142.812 242.593 136.582C242.094 134.215 241.498 129.809 241.038 125.106L240.914 123.482C240.748 121.304 240.573 119.051 240.487 116.67C240.275 113.715 240.27 110.75 240.471 107.794C240.828 102.5 243.621 97.3899 247.286 95.3917C248.804 94.5409 250.519 94.1056 252.259 94.1296H252.315C253.329 94.1424 254.339 94.262 255.329 94.4862L256.503 94.7286C258.097 95.0673 258.949 95.2295 259.341 94.7856C259.479 94.546 259.562 94.2795 259.587 94.0045C259.612 93.7294 259.576 93.4522 259.484 93.192C259.124 91.9796 258.41 90.9022 257.434 90.0976L257.421 90.0887C255.309 88.4721 252.689 87.663 250.033 87.8071Z" fill="#1A1818"/>
<path d="M405.284 78.461C406.999 79.6215 416.364 78.9066 427.53 74.2917C429.1 73.6411 433.747 72.1081 438.204 70.0386C442.66 67.9691 446.92 65.4201 447.94 63.3488C448.774 61.6875 448.778 57.4309 445.553 58.1385C442.455 58.7538 439.431 59.6948 436.532 60.946C433.68 62.1563 430.437 63.8283 425.107 66.0761C421.581 67.1407 418.001 68.0189 414.382 68.7071C409.792 69.7356 405.218 70.7748 403.826 72.1705C401.901 74.1223 403.051 77.117 405.284 78.461Z" fill="#369636"/>
<path d="M408.28 79.8194C407.089 79.9141 405.894 79.7062 404.806 79.2151C404.062 78.7746 403.424 78.1755 402.938 77.4604C402.452 76.7453 402.129 75.9318 401.993 75.0779C401.906 74.4363 401.969 73.7833 402.177 73.1702C402.385 72.5572 402.733 72.0008 403.193 71.5449C404.674 70.0583 408.506 69.1118 414.187 67.8355L414.795 67.7036C418.158 67.0597 421.485 66.2416 424.763 65.2526C427.843 63.9549 430.177 62.8694 432.239 61.9104C433.704 61.2295 434.977 60.6377 436.184 60.1279C439.137 58.8585 442.215 57.9026 445.367 57.2758C445.924 57.1127 446.517 57.1181 447.071 57.2913C447.624 57.4645 448.115 57.7977 448.479 58.2491C448.966 59.0776 449.244 60.0124 449.288 60.9725C449.333 61.9325 449.143 62.8889 448.734 63.7588C447.385 66.5057 441.782 69.3845 438.574 70.8586C435.39 72.3363 432.098 73.5467 429.92 74.3506C429.029 74.6768 428.316 74.9388 427.872 75.1242C421.675 77.8492 415.039 79.4395 408.28 79.8194ZM446.228 58.9532C446.065 58.9553 445.904 58.9744 445.745 59.0102C442.701 59.6125 439.73 60.5369 436.882 61.7678C435.688 62.2722 434.435 62.8551 432.989 63.5271C430.914 64.4914 428.565 65.5842 425.453 66.8979C422.078 67.9374 418.647 68.7872 415.177 69.4433L414.57 69.577C410.613 70.4683 405.681 71.5734 404.458 72.7998C404.187 73.0624 403.983 73.3858 403.861 73.7432C403.74 74.1006 403.706 74.4817 403.761 74.855C403.865 75.4441 404.096 76.0034 404.438 76.4941C404.78 76.9847 405.225 77.395 405.742 77.6964L405.783 77.7231C407.039 78.5787 415.843 78.1563 427.189 73.4683C427.654 73.2758 428.385 73.0066 429.301 72.6679C431.453 71.8765 434.704 70.6804 437.825 69.2294C442.786 66.9602 446.353 64.5557 447.139 62.9567C447.4 62.3866 447.529 61.7651 447.518 61.1382C447.506 60.5113 447.354 59.895 447.073 59.3346C446.975 59.2062 446.846 59.1041 446.699 59.0375C446.551 58.9709 446.389 58.942 446.228 58.9532Z" fill="#369636"/>
<path d="M411.337 112.584C412.349 114.242 419.237 116.149 428.609 117.814C429.941 118.054 433.654 119.151 437.44 120.211C441.237 121.242 445.124 122.245 447.09 121.548C448.645 120.974 451.814 118.161 449.486 116.343C447.278 114.551 444.771 113.163 442.08 112.243C438.518 111.135 434.885 110.268 431.206 109.648C429.78 109.384 425.896 107.866 421.85 106.837C417.814 105.784 413.65 105.249 412.084 106.169C409.912 107.429 410.069 110.645 411.337 112.584Z" fill="#369636"/>
<path d="M445.435 122.673C442.639 122.465 439.878 121.927 437.209 121.069L434.49 120.302C431.768 119.53 429.417 118.864 428.453 118.698C417.738 116.792 411.726 114.899 410.585 113.071C409.639 111.612 409.311 109.837 409.67 108.137C409.792 107.569 410.03 107.034 410.37 106.564C410.711 106.094 411.145 105.7 411.645 105.408C413.852 104.119 419.132 105.219 422.079 105.989C424.337 106.557 426.535 107.279 428.305 107.858C429.644 108.297 430.8 108.677 431.376 108.785C435.095 109.408 438.767 110.286 442.365 111.413C445.15 112.36 447.745 113.793 450.03 115.646C450.449 115.942 450.778 116.349 450.979 116.822C451.18 117.294 451.246 117.813 451.169 118.32C450.888 119.24 450.402 120.084 449.75 120.79C449.097 121.497 448.294 122.047 447.399 122.4C446.764 122.601 446.1 122.693 445.435 122.673ZM414.638 106.598C413.922 106.546 413.204 106.665 412.542 106.944C412.25 107.116 411.997 107.348 411.801 107.624C411.605 107.901 411.47 108.216 411.405 108.548C411.165 109.776 411.408 111.05 412.084 112.103L412.098 112.126C412.227 112.338 413.8 114.279 428.767 116.939C429.818 117.128 432.21 117.807 434.977 118.591L437.681 119.356C440.77 120.193 445.012 121.343 446.795 120.71C447.389 120.465 447.927 120.101 448.376 119.642C448.825 119.182 449.176 118.636 449.408 118.037C449.438 117.845 449.408 117.648 449.324 117.473C449.241 117.298 449.106 117.152 448.938 117.055C446.806 115.326 444.387 113.988 441.79 113.101C438.271 112.005 434.681 111.148 431.046 110.538C429.93 110.267 428.829 109.94 427.747 109.555C426.007 108.981 423.841 108.272 421.636 107.714C419.357 107.061 417.008 106.686 414.638 106.598Z" fill="#369636"/>
<path d="M226.636 40.4242C225.375 39.7415 223.97 39.3693 222.536 39.3387C221.322 39.1842 220.099 39.1168 218.875 39.1373C217.502 39.205 215.966 39.2923 214.305 39.4706C205.906 40.7986 198.018 44.3609 191.469 49.7842C190.921 50.2138 190.168 50.9108 189.198 51.7272C188.046 52.6668 186.955 53.679 185.932 54.7575L184.102 56.6345C183.471 57.2869 182.914 58.0605 182.299 58.7913C181.685 59.5222 181.073 60.294 180.49 61.0925L178.857 63.6077C176.824 66.8078 175.263 70.2845 174.223 73.9302C173.45 76.3517 173.267 78.9227 173.688 81.4293C174.358 83.9658 177.735 86.8125 179.321 82.4775C179.737 81.3215 180.22 80.1907 180.767 79.0907L181.43 77.5541L182.185 76.1281C182.695 75.2012 183.077 74.2476 183.594 73.3456C184.111 72.4437 184.636 71.5345 185.15 70.5648C188.116 65.346 191.949 60.6702 196.485 56.7379C196.954 56.3813 197.677 55.8805 198.585 55.2816C199.043 54.991 199.526 54.6381 200.086 54.3297L201.9 53.3921C202.54 53.0695 203.2 52.704 203.904 52.3725L206.13 51.4812C207.684 50.8416 209.275 50.2928 210.893 49.8377C212.497 49.2833 214.191 49.0659 215.759 48.6327C217.355 48.36 218.889 48.1586 220.285 47.8841C221.54 47.7959 222.79 47.6418 224.028 47.4224C224.896 47.3307 225.753 47.16 226.59 46.9126C229.998 45.606 229.75 42.426 226.636 40.4242Z" fill="#1A1818"/>
<path d="M177.015 85.6075H176.894C175.908 85.4108 174.999 84.9333 174.278 84.2325C173.556 83.5318 173.053 82.6375 172.828 81.6574C172.343 79.0094 172.527 76.2822 173.363 73.7234C174.426 69.9797 176.024 66.4093 178.108 63.1227L179.742 60.6076C180.182 60.0015 180.619 59.4579 181.052 58.9213L181.598 58.2386C181.814 57.9802 182.01 57.736 182.202 57.4935C182.614 56.9766 183.019 56.4703 183.459 56.014L185.291 54.1353C186.336 53.0375 187.449 52.0064 188.623 51.0479C189.042 50.6914 189.421 50.3634 189.758 50.0675C190.215 49.6718 190.601 49.3349 190.92 49.0854C197.593 43.5594 205.631 39.9316 214.189 38.5828C215.892 38.4045 217.425 38.3136 218.824 38.2441C219.83 38.2074 220.837 38.2515 221.836 38.376L222.601 38.4491C224.186 38.4957 225.737 38.9185 227.127 39.6826C227.978 40.1268 228.689 40.7976 229.183 41.6208C229.676 42.444 229.933 43.3877 229.924 44.3475C229.799 45.1426 229.447 45.8848 228.911 46.4855C228.376 47.0861 227.678 47.5197 226.902 47.7342C226.303 47.9456 225.681 48.085 225.049 48.1496C224.778 48.1906 224.489 48.2333 224.182 48.2868C222.913 48.5132 221.632 48.6709 220.346 48.7592C219.599 48.9143 218.699 49.0533 217.762 49.1994C217.155 49.2939 216.535 49.392 215.902 49.4989C215.336 49.6593 214.655 49.8055 213.981 49.9499C213.033 50.1332 212.096 50.3712 211.175 50.6629C210.749 50.802 210.332 50.9303 209.927 51.0586C208.76 51.3869 207.616 51.7931 206.503 52.2743L204.238 53.1905C203.838 53.3813 203.41 53.6041 202.99 53.8216L200.494 55.1103C200.166 55.2885 199.847 55.506 199.546 55.7074L199.059 56.0265C198.191 56.5969 197.487 57.08 197.031 57.4329C192.704 61.1842 189.034 65.6322 186.174 70.5933L185.908 71.0229C185.418 71.9569 184.899 72.8838 184.359 73.7911C184.101 74.2421 183.874 74.718 183.646 75.1975C183.43 75.6485 183.211 76.1013 182.965 76.5487L182.22 77.9622L181.585 79.4346C181.441 79.7679 181.284 80.103 181.124 80.4435C180.752 81.184 180.435 81.9507 180.175 82.7376C179.275 85.2028 177.856 85.6075 177.015 85.6075ZM219.5 40.0088C219.309 40.0088 219.118 40.0088 218.924 40.0231C217.539 40.0926 216.038 40.1781 214.402 40.3528C206.173 41.6589 198.448 45.1541 192.034 50.4722C191.723 50.7164 191.363 51.0319 190.936 51.4044C190.58 51.7057 190.202 52.0444 189.774 52.4062C188.65 53.3202 187.586 54.305 186.587 55.3545L184.74 57.2511C184.343 57.6611 183.974 58.1263 183.598 58.5969C183.398 58.85 183.195 59.1049 182.986 59.3545L182.452 60.0318C182.036 60.547 181.617 61.0657 181.22 61.6112L179.616 64.0853C177.634 67.2113 176.113 70.6062 175.099 74.1654C174.111 78.3365 174.252 80.2652 174.544 81.1404C174.901 82.5023 176.085 83.7768 176.983 83.8142C177.805 83.8855 178.213 82.9319 178.496 82.1583C178.776 81.306 179.119 80.4754 179.521 79.6734C179.675 79.349 179.824 79.0299 179.96 78.718L180.623 77.1814L181.407 75.6913C181.646 75.2599 181.847 74.8374 182.049 74.415C182.297 73.8963 182.546 73.3811 182.833 72.882C183.368 71.9908 183.867 71.0852 184.373 70.128L184.667 69.6485C187.628 64.5185 191.429 59.9217 195.911 56.0497C196.432 55.6415 197.174 55.1317 198.104 54.5167L198.569 54.2137C198.91 53.9873 199.27 53.7485 199.665 53.5292L202.179 52.2298C202.617 52.0016 203.07 51.7663 203.535 51.5471L205.806 50.6272C206.979 50.121 208.183 49.6923 209.412 49.3438C209.817 49.219 210.225 49.0925 210.628 48.9624C211.611 48.6466 212.612 48.3894 213.626 48.1923C214.271 48.0533 214.913 47.9178 215.533 47.7467C216.261 47.6166 216.89 47.5203 217.507 47.4241C218.418 47.2832 219.289 47.146 220.125 46.9838C221.631 46.859 222.861 46.7093 223.881 46.5203C224.213 46.4615 224.517 46.4152 224.803 46.3724C225.298 46.3214 225.787 46.218 226.261 46.064C227.417 45.6255 228.084 44.9517 228.17 44.1567C228.129 43.5255 227.921 42.9164 227.569 42.3911C227.216 41.8658 226.731 41.443 226.163 41.1656L226.129 41.1407C224.998 40.5587 223.748 40.2434 222.476 40.2191L221.676 40.1443C220.953 40.0616 220.227 40.0163 219.5 40.0088Z" fill="#1A1818"/>
<path d="M19.7168 149.693C18.516 150.106 17.3712 150.667 16.3086 151.363C14.3516 152.599 12.6143 154.153 11.1678 155.96C9.00677 158.71 7.67203 162.018 7.31933 165.498C7.08097 167.704 7.29944 169.935 7.96107 172.053C8.34501 173.269 8.88869 174.429 9.57783 175.502C10.29 176.604 11.1447 177.607 12.1197 178.486C13.9272 180.109 15.5724 181.117 16.4583 181.962C16.7998 182.249 17.0887 182.594 17.3122 182.981C17.5072 183.328 17.6416 183.706 17.7097 184.099C18.1303 185.903 17.1339 189.532 15.191 192.942C14.1215 194.863 12.8558 197.017 11.715 199.537C10.3287 202.403 9.56967 205.532 9.48868 208.715C9.48121 210.579 9.81718 212.428 10.4798 214.17C11.1099 215.772 11.949 217.283 12.9753 218.665C14.8505 221.211 16.7596 223.027 18.0519 224.754C19.5243 226.893 21.2605 229.102 17.5813 234.423C16.5748 235.824 15.4798 237.159 14.3032 238.421C13.0377 239.847 11.601 241.205 9.99137 243.234C8.42721 245.206 7.14347 247.384 6.17675 249.708C5.01328 252.333 4.53785 255.21 4.79531 258.07C4.96247 259.711 5.49349 261.294 6.34968 262.704C6.57428 263.061 6.7953 263.417 7.03951 263.747L7.84879 264.662C8.37882 265.247 8.97729 265.766 9.63131 266.209C12.0983 267.849 13.9842 268.428 14.9895 269.289C16.1405 270.243 17.0669 271.439 17.7025 272.792C18.3382 274.145 18.6675 275.621 18.6669 277.116C18.6912 278.406 18.4492 279.686 17.956 280.878C17.4628 282.07 16.7291 283.147 15.8006 284.043C14.3724 285.406 12.7052 286.493 10.8826 287.251C9.79351 287.731 8.53505 288.216 7.34076 288.613C6.33666 288.874 5.3668 289.252 4.45129 289.74C3.8791 290.141 3.82028 290.843 5.01992 291.644C7.39649 292.957 10.1784 293.333 12.8184 292.699C17.2783 291.914 21.2509 289.408 23.879 285.72C26.2433 282.257 27.2346 278.038 26.6597 273.884C26.171 269.98 24.4181 266.344 21.6686 263.53C20.9463 262.809 20.162 262.152 19.3246 261.569C18.6007 261.082 17.8516 260.633 17.0804 260.225C16.1957 259.807 15.3544 259.303 14.5689 258.72C14.2221 258.411 13.971 258.009 13.8452 257.562C13.6701 256.778 13.6793 255.964 13.8719 255.184C14.5309 252.573 15.7873 250.15 17.5421 248.107C17.9806 247.573 18.658 246.835 19.3246 246.107L21.3924 243.79C22.9949 242.001 24.4327 240.071 25.6882 238.024C27.3389 235.417 28.2774 232.423 28.4101 229.341C28.4275 227.576 28.1187 225.824 27.4993 224.172C26.8971 222.614 26.0734 221.151 25.0536 219.828C24.0198 218.384 22.3692 216.58 20.838 214.63C20.0872 213.707 19.4576 212.693 18.9646 211.61C18.5157 210.58 18.3413 209.45 18.4583 208.332C18.6134 205.837 20.2408 202.612 22.3442 199.063L23.1446 197.69C23.4244 197.19 23.7275 196.674 23.9966 196.141C24.5694 195.061 25.0812 193.949 25.5296 192.812C26.5708 190.311 27.1245 187.634 27.1606 184.926C27.1873 181.725 26.0343 178.625 23.9218 176.22C22.2461 174.595 20.4383 173.111 18.5171 171.785C18.0136 171.391 17.5721 170.923 17.207 170.398C16.8748 169.913 16.6248 169.375 16.4673 168.808C16.1226 167.558 16.0617 166.246 16.289 164.969C16.7348 162.542 17.9013 160.306 19.6365 158.552C20.9613 157.195 22.3724 155.926 23.8611 154.751C26.8914 152.277 27.9609 150.737 27.0697 149.76C26.2248 148.844 23.526 148.493 19.7168 149.693Z" fill="#E0332C"/>
<path d="M10.1483 293.84C8.17667 293.909 6.22697 293.408 4.53336 292.396C4.16 292.206 3.83971 291.926 3.60136 291.582C3.36301 291.237 3.21409 290.839 3.16797 290.423C3.16995 290.142 3.24185 289.866 3.37724 289.62C3.51263 289.374 3.70723 289.166 3.94336 289.014C4.7052 288.562 5.52658 288.219 6.38361 287.995L7.05918 287.774C8.22851 287.385 9.45847 286.913 10.5262 286.442C12.2448 285.728 13.8188 284.706 15.1714 283.428C16.0134 282.617 16.6794 281.641 17.1277 280.561C17.5761 279.481 17.7973 278.321 17.7775 277.152C17.7851 275.79 17.4909 274.443 16.9161 273.209C16.3413 271.974 15.5002 270.882 14.4531 270.011C13.8555 269.569 13.2126 269.193 12.5351 268.888C11.367 268.319 10.2358 267.676 9.14829 266.965C8.42814 266.476 7.76981 265.902 7.18756 265.255L6.3854 264.351C6.10377 263.97 5.89166 263.638 5.67241 263.303C4.70537 261.745 4.10445 259.988 3.91486 258.164C3.64253 255.162 4.13878 252.141 5.3569 249.384C6.35284 246.982 7.6787 244.73 9.29625 242.694C10.3872 241.323 11.4086 240.239 12.3123 239.284C12.774 238.792 13.2178 238.323 13.6438 237.844C14.7971 236.607 15.8689 235.297 16.8524 233.922C20.0805 229.246 18.7971 227.394 17.4371 225.434L17.3265 225.266C16.7918 224.553 16.1073 223.783 15.3782 222.96C14.421 221.879 13.3373 220.655 12.266 219.2C11.1888 217.755 10.3099 216.171 9.65278 214.493C8.95024 212.65 8.59486 210.693 8.60463 208.721C8.6851 205.415 9.47091 202.165 10.9094 199.188C11.8524 197.101 12.888 195.256 13.8007 193.628L14.4192 192.519C16.0268 190.089 16.8728 187.234 16.8488 184.32C16.8065 184.031 16.7123 183.753 16.5707 183.498C16.392 183.167 16.1497 182.873 15.8577 182.635C15.3697 182.199 14.8579 181.79 14.3248 181.411C13.5351 180.821 12.5512 180.085 11.528 179.163C10.4933 178.233 9.58638 177.169 8.83104 176.001C8.10224 174.861 7.52631 173.631 7.11804 172.341C6.41495 170.109 6.18249 167.755 6.43534 165.429C6.81222 161.781 8.21037 158.314 10.4692 155.425C11.979 153.541 13.7909 151.92 15.831 150.628C16.9576 149.891 18.172 149.297 19.4459 148.86C23.207 147.675 26.4548 147.803 27.7275 149.176C27.9174 149.377 28.063 149.616 28.1551 149.877C28.2472 150.138 28.2838 150.415 28.2623 150.691C28.1732 151.923 27.0626 153.306 24.4263 155.463L23.6598 156.103C22.468 157.05 21.343 158.079 20.2926 159.181C18.6689 160.803 17.5793 162.882 17.1696 165.14C16.9666 166.281 17.0189 167.453 17.3229 168.571C17.4515 169.045 17.6575 169.493 17.9326 169.899C18.251 170.363 18.6388 170.776 19.0823 171.122C19.4905 171.479 19.9736 171.812 20.5083 172.192C21.9891 173.188 23.3561 174.343 24.5849 175.637C26.8608 178.209 28.0996 181.535 28.0609 184.969C28.0242 187.781 27.4494 190.56 26.3674 193.156C25.907 194.327 25.3816 195.471 24.7935 196.584C24.5974 196.972 24.3728 197.368 24.1518 197.756L23.1215 199.539C21.339 202.528 19.5137 205.915 19.3568 208.411C19.2508 209.393 19.4025 210.386 19.7971 211.291C20.2595 212.3 20.8489 213.246 21.5511 214.106C22.207 214.94 22.8898 215.753 23.5332 216.519C24.3817 217.532 25.1839 218.48 25.7882 219.33C26.8549 220.717 27.7164 222.249 28.3461 223.881C29.001 225.637 29.3279 227.499 29.3104 229.373C29.1852 232.615 28.2009 235.765 26.4583 238.501C25.1756 240.589 23.7081 242.558 22.0734 244.384L19.6937 247.041C19.1447 247.646 18.61 248.23 18.2445 248.68C16.5876 250.615 15.3945 252.903 14.7561 255.369C14.5881 256.01 14.5722 256.682 14.7098 257.33C14.7953 257.636 14.9711 257.909 15.2142 258.113C15.94 258.623 16.7074 259.072 17.5083 259.455C18.311 259.878 19.09 260.345 19.8417 260.854C20.7228 261.466 21.5484 262.154 22.3087 262.911C25.1968 265.865 27.0364 269.685 27.5457 273.784C28.1566 278.159 27.1101 282.604 24.6117 286.246C21.856 290.134 17.6752 292.774 12.9808 293.592C12.0455 293.756 11.0978 293.839 10.1483 293.84ZM4.97899 290.465C5.1406 290.632 5.31989 290.78 5.51373 290.907C7.69731 292.1 10.2495 292.428 12.6634 291.825C16.8942 291.091 20.6634 288.715 23.15 285.214C25.3932 281.936 26.3297 277.938 25.7756 274.006C25.3159 270.294 23.653 266.836 21.0413 264.159C20.3576 263.479 19.6156 262.861 18.8238 262.311C18.1456 261.853 17.4435 261.433 16.7205 261.05C15.7394 260.598 14.8131 260.035 13.9593 259.373C13.5026 258.954 13.1697 258.417 12.9968 257.822C12.7819 256.899 12.7849 255.938 13.0057 255.016C13.6971 252.263 15.0174 249.708 16.863 247.551C17.2409 247.086 17.8007 246.482 18.3747 245.844L20.7311 243.207C22.2955 241.461 23.6999 239.577 24.9272 237.58C26.5062 235.108 27.4017 232.262 27.5225 229.332C27.536 227.681 27.2466 226.042 26.6687 224.496C26.0985 223.018 25.3181 221.63 24.3514 220.375C23.7757 219.571 22.9967 218.644 22.1714 217.658C21.5136 216.878 20.8185 216.054 20.1465 215.193C19.3445 214.21 18.6745 213.127 18.1536 211.97C17.6497 210.803 17.4527 209.527 17.5814 208.263C17.7597 205.411 19.7062 201.794 21.5885 198.626L22.6028 196.872C22.8095 196.516 23.0199 196.14 23.2124 195.76C23.7709 194.702 24.2713 193.614 24.7115 192.502C25.7098 190.107 26.2422 187.543 26.2801 184.949C26.3038 181.97 25.2353 179.086 23.2766 176.842C22.1304 175.637 20.856 174.562 19.4762 173.634C18.8809 173.209 18.3586 172.835 17.9397 172.468C17.3829 172.028 16.8946 171.508 16.4905 170.924C16.1026 170.364 15.8104 169.743 15.626 169.086C15.2408 167.706 15.169 166.256 15.4157 164.844C15.8851 162.24 17.1309 159.838 18.9896 157.955C20.0941 156.793 21.2776 155.709 22.5315 154.71L23.289 154.079C26.0145 151.848 26.4637 150.908 26.4976 150.546C26.5017 150.513 26.4977 150.48 26.4859 150.449C26.4741 150.418 26.4548 150.39 26.4298 150.368C25.9985 149.903 23.8559 149.334 20.0003 150.546C18.87 150.936 17.7924 151.464 16.7918 152.119C14.9211 153.305 13.2589 154.792 11.872 156.52C9.81241 159.133 8.54326 162.281 8.21427 165.593C7.987 167.676 8.19271 169.784 8.81853 171.783C9.17993 172.924 9.68933 174.012 10.3337 175.02C11.0023 176.054 11.8042 176.995 12.7187 177.819C13.6884 178.694 14.5975 179.372 15.3925 179.97C15.9773 180.39 16.539 180.841 17.0752 181.322C17.484 181.671 17.829 182.088 18.0948 182.555C18.3427 182.998 18.5116 183.48 18.5939 183.981C19.0663 185.976 18.0164 189.785 15.9682 193.382L15.3497 194.491C14.4584 196.086 13.4388 197.896 12.5297 199.91C11.1988 202.663 10.4697 205.669 10.3907 208.726C10.3808 210.476 10.6957 212.214 11.3194 213.849C11.9203 215.382 12.7236 216.827 13.708 218.147C14.7294 219.534 15.7847 220.726 16.7151 221.776C17.4709 222.63 18.1857 223.435 18.7775 224.225L18.9094 224.416C20.4014 226.566 22.257 229.243 18.3247 234.933C17.2975 236.37 16.1781 237.74 14.9736 239.033C14.544 239.516 14.0823 239.999 13.61 240.503C12.6902 241.478 11.7365 242.489 10.7009 243.792C9.1884 245.698 7.94725 247.804 7.01283 250.05C5.9101 252.537 5.45568 255.263 5.69199 257.974C5.84088 259.488 6.32825 260.95 7.11804 262.252C7.37116 262.649 7.56365 262.952 7.76864 263.236L8.52619 264.084C9.01167 264.619 9.55992 265.094 10.159 265.498C11.1821 266.165 12.2466 266.766 13.3461 267.298C14.1392 267.653 14.8886 268.099 15.5796 268.626C16.829 269.664 17.8341 270.965 18.5233 272.437C19.2125 273.908 19.5689 275.513 19.5671 277.137C19.5905 278.544 19.3249 279.94 18.7868 281.239C18.2487 282.539 17.4496 283.714 16.4388 284.692C14.937 286.124 13.1848 287.268 11.2695 288.066C10.1394 288.565 8.85239 289.059 7.63493 289.464L6.94511 289.69C6.26297 289.867 5.60378 290.123 4.98079 290.453L4.97899 290.465Z" fill="#E0332C"/>
<path d="M76.8034 36.8127C76.758 38.8857 77.0352 40.9533 77.6251 42.9411C78.1566 45.5696 79.5499 47.9458 81.5841 49.6933C83.0727 50.8561 84.8461 51.5979 86.7193 51.8412C88.5925 52.0845 90.4966 51.8204 92.2329 51.0765C95.4482 49.8345 98.2588 47.73 100.356 44.9945C101.404 43.6166 102.078 42.5418 102.851 41.4045C103.515 40.3897 104.237 39.4147 105.015 38.4848C105.531 37.834 106.16 37.282 106.873 36.8555C107.34 36.5745 107.887 36.4542 108.429 36.5133C109.322 36.6453 110.174 36.9747 110.924 37.4776C112.011 38.184 113 39.0302 113.866 39.9945C114.767 40.8858 116.104 42.7289 118.539 45.3421C118.844 45.6647 119.179 45.9963 119.534 46.3296C119.935 46.7236 120.548 47.2387 121.083 47.6701C122.238 48.5607 123.53 49.2583 124.908 49.736C126.309 50.2274 127.803 50.3986 129.279 50.2369C130.809 50.0445 132.247 49.4003 133.409 48.3867C134.41 47.4611 135.195 46.3267 135.709 45.064C136.234 43.8662 136.766 41.8662 136.84 41.8662C137.225 40.9542 137.879 40.1817 138.716 39.6523C139.659 39.0323 140.738 38.6511 141.862 38.5418C142.888 38.4389 143.923 38.6241 144.849 39.0766C146.81 40.057 148.785 42.6113 151.077 44.3581C151.981 45.1386 153.039 45.721 154.181 46.0676C155.324 46.4142 156.527 46.5175 157.712 46.3706C158.203 46.2899 158.673 46.1111 159.093 45.845C159.514 45.5789 159.876 45.2308 160.159 44.8216C160.364 44.5208 160.478 44.1677 160.488 43.8041C160.498 43.4405 160.404 43.0816 160.216 42.7699C159.872 42.3357 159.493 41.9303 159.083 41.5578C158.748 41.1586 158.888 40.868 158.191 40.6434C157.521 40.3709 156.924 39.9433 156.45 39.3956C155.783 38.6826 155.045 37.6684 154.156 36.5222C153.141 35.1604 151.979 33.9146 150.691 32.8074C149.048 31.4409 147.106 30.4825 145.022 30.0107C142.962 29.5702 140.832 29.5727 138.773 30.018C136.714 30.4633 134.773 31.3412 133.079 32.5936C131.12 34.0247 129.577 35.9508 128.607 38.1746C128.478 38.4531 128.364 38.7381 128.265 39.0284C128.235 39.101 128.211 39.1762 128.195 39.253V39.3172L128.16 39.5917C128.138 39.8013 128.078 40.005 127.981 40.1924C127.657 40.7718 126.824 40.7949 126.099 40.3706C125.247 39.7561 124.475 39.0376 123.801 38.2317L120.415 34.4117C119.321 33.172 118.129 32.0233 116.849 30.9768C114.681 29.1589 112.051 27.9757 109.252 27.5579C107.388 27.3414 105.5 27.5768 103.746 28.2442C102.025 28.9234 100.458 29.9418 99.1383 31.2388C97.0358 33.447 95.1574 35.858 93.5305 38.4366C93.2209 38.8938 92.8835 39.3313 92.5199 39.7468C92.1869 40.1314 91.8239 40.489 91.4343 40.8163C90.7248 41.4413 89.9279 41.9595 89.0689 42.3546C88.6771 42.5923 88.2189 42.697 87.7628 42.653C87.3066 42.609 86.8769 42.4186 86.5377 42.1104C86.3894 41.9626 86.2578 41.7988 86.1455 41.622C86.0799 41.5223 86.0204 41.4187 85.9673 41.3118L85.6946 40.7218L84.6251 38.1978C84.1277 36.9483 83.5569 35.7293 82.9157 34.5472C81.561 32.2406 80.2632 31.5044 79.126 32.0089C77.9887 32.5133 77.0601 34.3047 76.8034 36.8127Z" fill="#E0332C"/>
<path d="M87.9134 52.7751C85.3871 52.8365 82.9247 51.9774 80.9848 50.358C78.8066 48.4902 77.3152 45.9479 76.7477 43.1352C76.1402 41.052 75.8576 38.8876 75.9099 36.7182C76.1951 33.941 77.2504 31.8876 78.7352 31.2298C79.9046 30.7111 81.6995 30.8002 83.6567 34.1335C84.3164 35.3486 84.9039 36.6015 85.4161 37.8858L86.892 41.203C86.9662 41.3148 87.0511 41.4193 87.1452 41.5149C87.3564 41.6854 87.616 41.7849 87.8871 41.7993C88.1581 41.8137 88.4268 41.7423 88.655 41.5952C89.8639 41.0204 90.9434 40.2059 91.8279 39.2012C92.1719 38.8046 92.492 38.388 92.7868 37.9535C93.1112 37.5007 93.4339 37.0248 93.769 36.5382C95.135 34.4085 96.7212 32.4285 98.5016 30.6309C99.908 29.2475 101.58 28.1628 103.416 27.442C105.304 26.7239 107.337 26.472 109.343 26.7076C112.303 27.1407 115.085 28.3865 117.379 30.3065C118.558 31.2618 119.658 32.3097 120.671 33.4401L124.45 37.6736C125.041 38.3336 125.676 38.9524 126.352 39.5256L126.53 39.6255C126.626 39.6939 126.734 39.7421 126.849 39.7669C126.964 39.7917 127.083 39.7927 127.198 39.7698C127.235 39.6774 127.259 39.5802 127.268 39.4811L127.3 39.2226H127.314C127.327 39.0621 127.363 38.9042 127.421 38.7538C127.53 38.4343 127.655 38.1207 127.797 37.8144C128.83 35.4554 130.469 33.4126 132.55 31.8947C134.342 30.5622 136.398 29.6285 138.581 29.1563C140.764 28.6841 143.023 28.6842 145.205 29.1567C147.435 29.6568 149.513 30.6829 151.266 32.1496C152.599 33.2948 153.802 34.583 154.854 35.9909L155.471 36.7931C156.088 37.5988 156.619 38.2939 157.097 38.8055C157.48 39.2493 157.962 39.5967 158.505 39.8198C158.759 39.8872 158.994 40.012 159.193 40.1844C159.392 40.3567 159.548 40.5723 159.651 40.8144C159.678 40.8777 159.713 40.9374 159.754 40.9927C159.864 41.1158 159.983 41.2297 160.111 41.3331C160.449 41.6154 160.742 41.9471 160.981 42.3171C161.255 42.7698 161.395 43.2915 161.383 43.8207C161.371 44.35 161.208 44.8648 160.913 45.3046C160.566 45.8166 160.118 46.2527 159.597 46.5864C159.076 46.9201 158.493 47.1444 157.883 47.2457C156.572 47.4178 155.24 47.3113 153.974 46.9332C152.707 46.555 151.535 45.9138 150.533 45.0515C149.559 44.2776 148.63 43.448 147.751 42.5666C146.783 41.523 145.676 40.6168 144.462 39.8733C143.677 39.489 142.798 39.3369 141.929 39.4347C140.964 39.531 140.036 39.86 139.225 40.3937C138.543 40.8192 138.006 41.4405 137.683 42.1763L137.469 42.7467L137.396 42.9802C137.168 43.6932 136.861 44.6843 136.53 45.4258C135.965 46.8036 135.105 48.041 134.011 49.0514C132.714 50.1843 131.11 50.9054 129.402 51.1227C127.793 51.3082 126.164 51.1253 124.637 50.588C123.167 50.0801 121.789 49.3366 120.557 48.3866C119.976 47.9178 119.336 47.3795 118.917 46.9606C118.56 46.629 118.218 46.285 117.903 45.9534C116.516 44.4633 115.503 43.2494 114.694 42.2725C114.097 41.5595 113.635 40.9998 113.252 40.6201C112.431 39.7044 111.493 38.8996 110.464 38.2262C109.835 37.7937 109.116 37.5097 108.361 37.3956C107.987 37.353 107.609 37.4398 107.291 37.6415C106.679 38.0213 106.136 38.5037 105.687 39.0676C104.935 39.9719 104.234 40.9182 103.589 41.9018L102.949 42.8518C102.395 43.6771 101.824 44.5256 101.058 45.5256C98.8554 48.3888 95.9112 50.5945 92.5444 51.9035C91.0672 52.4753 89.4974 52.7708 87.9134 52.7751ZM79.7762 32.7842C79.6664 32.785 79.5579 32.8081 79.4572 32.8519C78.7442 33.1674 77.9224 34.5418 77.6747 36.9036V36.9232C77.6494 38.8859 77.9198 40.8413 78.4768 42.7235C78.974 45.1432 80.2438 47.3359 82.0953 48.9712C83.4661 50.041 85.0988 50.7236 86.8231 50.9477C88.5475 51.1719 90.3004 50.9295 91.8992 50.2457C94.9683 49.0626 97.6497 47.0525 99.646 44.4383C100.377 43.4793 100.926 42.6558 101.464 41.8572L102.111 40.9C102.794 39.8576 103.537 38.8559 104.336 37.9C104.933 37.163 105.657 36.5393 106.475 36.0587C107.091 35.7042 107.803 35.5527 108.511 35.6255C109.543 35.7704 110.531 36.145 111.4 36.7217C112.551 37.4697 113.599 38.365 114.518 39.3849C114.908 39.7699 115.409 40.3653 116.051 41.1371C116.851 42.0961 117.845 43.2903 119.195 44.7378C119.484 45.0443 119.808 45.3634 120.149 45.6843C120.546 46.0764 121.134 46.5666 121.646 46.982C122.718 47.8062 123.917 48.4514 125.195 48.8928C126.472 49.3429 127.833 49.5013 129.179 49.3563C130.527 49.182 131.794 48.6119 132.819 47.7181C133.716 46.8815 134.419 45.8588 134.879 44.7217C135.172 44.055 135.469 43.1175 135.685 42.4419C135.773 42.1388 135.879 41.8411 136.002 41.5506C136.452 40.4668 137.223 39.5472 138.213 38.9161C139.28 38.2101 140.504 37.7774 141.778 37.6558C142.977 37.537 144.186 37.7561 145.268 38.2886C146.64 39.1058 147.889 40.1148 148.975 41.285C149.811 42.1213 150.693 42.9099 151.617 43.6469C152.42 44.3497 153.36 44.8773 154.378 45.196C155.396 45.5146 156.47 45.6171 157.53 45.4971C158.271 45.379 158.937 44.976 159.385 44.3741C159.503 44.2141 159.573 44.0234 159.586 43.8249C159.598 43.6264 159.554 43.4284 159.457 43.2547C159.305 43.0306 159.121 42.8299 158.911 42.6593C158.718 42.4963 158.539 42.3175 158.376 42.1246C158.247 41.9662 158.139 41.7919 158.054 41.6059L157.876 41.49C157.057 41.163 156.331 40.6425 155.758 39.9731C155.268 39.4508 154.71 38.7253 154.066 37.8822L153.457 37.0907C152.48 35.7809 151.363 34.5818 150.125 33.515C148.596 32.2429 146.788 31.3494 144.849 30.9072C142.909 30.4866 140.901 30.4863 138.961 30.9063C137.021 31.3263 135.194 32.1568 133.601 33.3421C131.773 34.6775 130.332 36.4751 129.427 38.5506C129.307 38.8085 129.201 39.0727 129.109 39.3421H129.088L129.038 39.7307C129.001 40.0574 128.901 40.3739 128.744 40.6629C128.627 40.8683 128.471 41.0485 128.284 41.193C128.097 41.3374 127.883 41.4432 127.655 41.5043C126.968 41.6646 126.246 41.5473 125.646 41.178C124.688 40.5452 123.837 39.7629 123.127 38.8608L119.37 34.6469C118.422 33.5851 117.39 32.6015 116.284 31.7057C114.24 29.9889 111.761 28.87 109.122 28.4723C107.406 28.2727 105.667 28.491 104.054 29.1086C102.441 29.743 100.973 30.6987 99.7404 31.9178C98.0511 33.6312 96.5451 35.516 95.2467 37.5417C94.9045 38.039 94.5747 38.5239 94.2449 38.9856C93.9166 39.4706 93.5595 39.9355 93.1754 40.3777C92.1284 41.5649 90.8513 42.5273 89.4214 43.2066C88.868 43.5204 88.2287 43.6488 87.597 43.5728C86.9654 43.4967 86.3747 43.2203 85.9117 42.7841C85.7147 42.5902 85.5406 42.3743 85.3929 42.1406C85.3055 42.013 85.227 41.8796 85.1577 41.7413L83.7887 38.5809C83.3059 37.3686 82.753 36.1853 82.1327 35.0372C81.7049 34.3046 80.7014 32.7842 79.7834 32.7842H79.7762Z" fill="#E0332C"/>
<path d="M302.728 73.4097C303.291 75.0139 308.662 77.0692 315.978 76.44C317.004 76.3491 319.942 76.4649 322.885 76.0977C325.828 75.7305 328.751 74.9141 329.742 73.3704C330.553 72.1369 331.382 68.1869 329.484 67.6468C325.143 66.3437 323.507 67.1583 316.732 67.907C314.594 67.7449 312.471 67.4244 310.381 66.948C307.684 66.4899 304.985 66.1316 303.832 67.0478C303.067 67.8965 302.557 68.944 302.362 70.0696C302.167 71.1952 302.294 72.3531 302.728 73.4097Z" fill="#006FB0"/>
<path d="M313.343 77.4417C307.282 77.4417 302.616 75.6592 301.897 73.7287C301.388 72.4979 301.248 71.1459 301.492 69.8367C301.736 68.5275 302.355 67.3173 303.273 66.3527C304.726 65.1958 307.534 65.5577 310.528 66.0675L312.369 66.4008C313.775 66.728 315.207 66.9344 316.648 67.0175C318.232 66.8393 319.541 66.661 320.665 66.5095C323.664 65.8161 326.792 65.9138 329.742 66.7929C330.103 66.8986 330.432 67.0913 330.701 67.3539C330.97 67.6165 331.17 67.9411 331.284 68.2992C331.745 70.1856 331.461 72.1774 330.489 73.8589C329.209 75.8535 325.706 76.6574 322.993 76.98C321.177 77.1819 319.35 77.2831 317.523 77.2831C316.885 77.292 316.377 77.2973 316.058 77.3241C315.125 77.4096 314.222 77.4417 313.343 77.4417ZM306.2 67.3669C305.571 67.3086 304.939 67.4402 304.386 67.7448C303.776 68.4708 303.375 69.3494 303.228 70.286C303.08 71.2227 303.191 72.1819 303.548 73.0603L303.567 73.1084C303.913 74.0923 308.669 76.1708 315.901 75.5487C316.245 75.5202 316.792 75.5112 317.505 75.5005C319.268 75.5014 321.03 75.4051 322.783 75.2118C325.992 74.8303 328.309 73.964 329 72.8945C329.665 71.6852 329.883 70.2807 329.617 68.9266C329.489 68.5701 329.319 68.5309 329.248 68.5113C326.538 67.7114 323.665 67.6321 320.915 68.2814C319.776 68.4382 318.451 68.62 316.838 68.7983C315.225 68.7574 313.62 68.544 312.052 68.1619L310.232 67.8303C308.902 67.5748 307.554 67.4217 306.2 67.3723V67.3669Z" fill="#006FB0"/>
<path d="M306.259 98.0581C306.74 99.6231 310.965 101.267 316.89 101.001C318.563 100.924 326.298 102.119 328.496 99.4235C329.376 98.3432 330.879 94.6106 329.358 93.7604C325.875 91.7996 324.257 92.288 318.333 92.5572C316.658 92.6339 309.184 89.7052 307.2 91.6749C306.549 92.5886 306.125 93.6436 305.961 94.7533C305.798 95.8629 305.9 96.9955 306.259 98.0581Z" fill="#006FB0"/>
<path d="M321.959 102.094C320.702 102.094 319.493 102.019 318.49 101.957C317.803 101.914 317.263 101.878 316.937 101.891C311.08 102.167 306.146 100.63 305.42 98.3363C305 97.1189 304.886 95.8169 305.089 94.5451C305.291 93.2732 305.804 92.0708 306.581 91.044C308.31 89.3292 312.395 90.331 315.672 91.1385C316.53 91.3842 317.406 91.563 318.292 91.6732C319.203 91.6322 320.014 91.5841 320.743 91.5431C324.78 91.3096 326.625 91.2044 329.795 92.9905C330.075 93.1529 330.315 93.3768 330.496 93.6454C330.677 93.9141 330.795 94.2204 330.841 94.5413C330.938 96.4954 330.353 98.4226 329.185 99.9922C327.771 101.719 324.75 102.094 321.959 102.094ZM317.057 100.106C317.413 100.106 317.948 100.137 318.602 100.178C321.117 100.333 326.345 100.655 327.812 98.8586C328.644 97.6929 329.093 96.2977 329.098 94.8657C329.048 94.6055 328.958 94.5538 328.93 94.5377C326.212 93.0065 324.862 93.085 320.853 93.3167C320.117 93.3577 319.301 93.4058 318.381 93.4468C317.321 93.3742 316.272 93.1804 315.256 92.8693C313.017 92.322 308.853 91.2971 307.836 92.3096C307.309 93.1051 306.971 94.0096 306.845 94.955C306.719 95.9004 306.809 96.8621 307.108 97.7677V97.7962C307.394 98.7177 311.078 100.349 316.848 100.113C316.907 100.108 316.968 100.106 317.048 100.106H317.057Z" fill="#006FB0"/>
<path d="M301.14 126.784C301.924 128.174 304.856 128.639 308.997 127.839C309.594 127.73 311.266 127.823 313.034 127.782C314.764 127.923 316.485 127.42 317.865 126.368C318.756 125.408 320.959 122.039 319.767 120.964C316.992 118.604 315.223 118.771 309.963 119.329C309.223 119.426 307.15 118.907 305.017 118.853C302.883 118.8 300.756 119.172 300.204 120.399C299.69 122.569 300.025 124.853 301.14 126.784Z" fill="#006FB0"/>
<path d="M305.297 129.135C302.801 129.135 301.074 128.486 300.363 127.229V127.217C299.407 125.457 298.478 122.069 299.405 120.037C300.272 118.09 303.327 117.919 305.058 117.969C306.138 118.015 307.216 118.123 308.284 118.292C308.803 118.385 309.328 118.438 309.854 118.452C315.106 117.894 317.266 117.668 320.352 120.292C320.556 120.477 320.719 120.702 320.832 120.953C320.945 121.204 321.005 121.476 321.008 121.752C320.736 123.708 319.87 125.533 318.526 126.98C316.992 128.221 315.042 128.829 313.074 128.68C312.327 128.696 311.614 128.691 310.985 128.68C310.378 128.658 309.77 128.67 309.165 128.718C307.891 128.979 306.596 129.118 305.297 129.135ZM301.91 126.356C302.396 127.203 304.762 127.757 308.821 126.971C309.539 126.894 310.263 126.871 310.985 126.903C311.599 126.903 312.295 126.916 313.008 126.903C314.505 127.031 316 126.624 317.225 125.753C318.228 124.649 318.915 123.294 319.213 121.832C319.217 121.762 319.2 121.692 319.163 121.632C316.68 119.52 315.145 119.682 310.051 120.222C309.369 120.243 308.687 120.188 308.018 120.056C307.015 119.897 306.003 119.795 304.988 119.752C302.92 119.666 301.316 120.096 301.017 120.769C300.62 122.677 300.941 124.663 301.917 126.349L301.91 126.356Z" fill="#006FB0"/>
<path d="M303.261 163.669C303.489 165.306 307.952 167.947 314.564 168.304C315.492 168.352 318.084 168.86 320.756 168.914C323.428 168.967 326.148 168.589 327.273 167.215C328.189 166.119 329.553 162.341 327.965 161.529C324.344 159.607 322.776 160.165 316.653 159.997C314.785 159.556 312.956 158.968 311.18 158.24C308.863 157.454 306.521 156.785 305.334 157.552C304.497 158.311 303.867 159.272 303.504 160.342C303.142 161.412 303.058 162.558 303.261 163.669Z" fill="#006FB0"/>
<path d="M321.314 169.821C321.118 169.821 320.922 169.821 320.733 169.821C319.109 169.766 317.489 169.616 315.883 169.372C315.287 169.291 314.813 169.226 314.519 169.209C307.786 168.853 302.736 166.09 302.38 163.832C302.145 162.549 302.25 161.228 302.683 159.998C303.116 158.769 303.862 157.673 304.849 156.821C306.396 155.816 308.966 156.564 311.467 157.413C312.07 157.621 312.667 157.837 313.241 158.044C314.358 158.496 315.511 158.854 316.688 159.113C318.05 159.152 319.193 159.152 320.18 159.152C323.012 158.867 325.865 159.425 328.38 160.757C328.68 160.918 328.938 161.147 329.135 161.425C329.331 161.704 329.46 162.024 329.512 162.361C329.661 164.302 329.109 166.232 327.955 167.799C326.613 169.438 323.713 169.821 321.314 169.821ZM306.729 158.111C306.413 158.092 306.098 158.16 305.818 158.309C305.134 158.97 304.622 159.788 304.328 160.692C304.034 161.597 303.967 162.56 304.132 163.496L304.141 163.546C304.276 164.514 308.116 167.072 314.612 167.423C314.936 167.439 315.462 167.509 316.121 167.602C317.662 167.834 319.215 167.978 320.772 168.033C323.702 168.111 325.811 167.605 326.583 166.662C327.395 165.509 327.811 164.124 327.767 162.714C327.704 162.407 327.588 162.357 327.556 162.333C325.292 161.139 322.722 160.653 320.178 160.939C319.178 160.939 318.02 160.939 316.628 160.899C315.256 160.662 313.916 160.265 312.636 159.716C312.071 159.513 311.48 159.299 310.888 159.094C309.553 158.578 308.154 158.248 306.729 158.111Z" fill="#006FB0"/>
<path d="M12.6025 98.6536C12.303 106.688 12.4065 114.733 12.9127 122.757C12.9127 123.939 13.3821 125.072 14.2179 125.908C15.0536 126.744 16.1871 127.213 17.369 127.213C18.5509 127.213 19.6843 126.744 20.5201 125.908C21.3558 125.072 21.8253 123.939 21.8253 122.757C21.3191 114.733 21.2156 106.688 21.5151 98.6536C21.5062 97.4745 21.0339 96.3461 20.2001 95.5123C19.3663 94.6785 18.238 94.2062 17.0588 94.1973C15.8843 94.221 14.7646 94.6981 13.934 95.5287C13.1033 96.3593 12.6262 97.4791 12.6025 98.6536Z" fill="#F5B500"/>
<path d="M4.4563 113.415L30.5934 114.798C31.7728 114.79 32.9017 114.318 33.7357 113.484C34.5697 112.65 35.0417 111.521 35.0497 110.342C35.0247 109.168 34.5472 108.049 33.7168 107.218C32.8865 106.388 31.7674 105.91 30.5934 105.885L4.4563 104.502C3.27672 104.509 2.1476 104.981 1.3135 105.816C0.479396 106.65 0.00747773 107.779 0 108.958C0.0250122 110.132 0.502561 111.251 1.33292 112.082C2.16328 112.912 3.28226 113.39 4.4563 113.415Z" fill="#F5B500"/>
<path d="M288.874 258.271C288.574 266.306 288.678 274.351 289.184 282.376C289.184 283.558 289.654 284.692 290.489 285.527C291.325 286.363 292.459 286.833 293.64 286.833C294.822 286.833 295.956 286.363 296.792 285.527C297.627 284.692 298.097 283.558 298.097 282.376C297.591 274.351 297.487 266.306 297.787 258.271C297.777 257.092 297.305 255.964 296.471 255.13C295.637 254.297 294.509 253.824 293.33 253.815C292.156 253.839 291.037 254.316 290.206 255.147C289.375 255.977 288.898 257.097 288.874 258.271Z" fill="#F5B500"/>
<path d="M280.729 273.025L306.866 274.408C308.046 274.4 309.175 273.928 310.009 273.094C310.843 272.26 311.315 271.131 311.323 269.952C311.298 268.778 310.82 267.659 309.99 266.829C309.159 265.998 308.04 265.521 306.866 265.496L280.729 264.112C279.55 264.12 278.421 264.592 277.587 265.426C276.753 266.26 276.281 267.389 276.273 268.569C276.298 269.743 276.776 270.862 277.606 271.692C278.436 272.522 279.555 273 280.729 273.025Z" fill="#F5B500"/>
</svg>
